<svg data-v-fde0c5aa="" xmlns="http://www.w3.org/2000/svg" viewBox="0 0 300 300" class="iconAboveSlogan"><!----><defs data-v-fde0c5aa=""><!----></defs><rect data-v-fde0c5aa="" fill="none" x="0" y="0" width="300px" height="300px" class="logo-background-square"></rect><defs data-v-fde0c5aa=""><!----></defs><g data-v-fde0c5aa="" id="fe773b69-8299-470e-94a2-541388fb5e97" fill="#6366f1" transform="matrix(3.7442394996945607,0,0,3.7442394996945607,18.27764979889613,160.1735486991448)"><path d="M0.48 10.50L3.79 10.50L3.79 10.09C2.88 10.02 2.55 9.98 2.46 9.39C2.39 8.93 2.37 8.40 2.37 7.66L2.37 2.10L2.39 2.10L6.01 10.33L6.38 10.33L10.04 2.10L10.08 2.10L10.08 9.20C10.08 9.98 10.05 10.01 8.82 10.09L8.82 10.50L12.73 10.50L12.73 10.09C11.51 10.01 11.47 9.98 11.47 9.20L11.47 2.11C11.47 1.33 11.51 1.30 12.73 1.22L12.73 0.81L9.91 0.81C9.44 2.06 8.86 3.29 8.30 4.52L6.62 8.27L6.59 8.27L4.94 4.54C4.40 3.29 3.81 2.06 3.30 0.81L0.46 0.81L0.46 1.22C1.69 1.30 1.72 1.33 1.72 2.11L1.72 7.66C1.72 8.40 1.69 8.93 1.62 9.39C1.54 9.98 1.20 10.04 0.48 10.09ZM16.86 10.50L20.55 10.50L20.55 10.09C19.96 10.04 19.64 10.04 19.54 9.87C19.50 9.81 19.50 9.80 19.50 9.20L19.50 5.94L20.47 5.94C21.31 5.94 21.95 6.20 22.19 7.15C22.29 7.55 22.44 8.65 22.60 9.30C22.81 10.19 23.34 10.50 24.16 10.50L25.30 10.50L25.30 10.09C24.21 9.98 23.98 9.20 23.86 8.25C23.69 7 23.44 6.06 21.95 5.70L21.95 5.67C23.27 5.42 24.23 4.54 24.23 3.21C24.23 1.86 23.39 0.81 20.94 0.81L16.86 0.81L16.86 1.22C18.09 1.30 18.12 1.33 18.12 2.11L18.12 9.20C18.12 9.98 18.09 10.01 16.86 10.09ZM19.50 5.45L19.50 2.00C19.50 1.41 19.60 1.30 20.52 1.30C21.56 1.30 22.74 1.68 22.74 3.33C22.74 4.80 21.97 5.45 20.61 5.45ZM26.07 8.68C26.07 9.73 26.77 10.67 28.08 10.67C28.90 10.67 29.72 10.12 30.17 9.83C30.37 10.35 30.59 10.67 31.08 10.67C31.60 10.67 32.20 10.51 32.73 10.25L32.65 9.91C32.45 9.95 32.14 9.98 31.93 9.93C31.68 9.87 31.44 9.60 31.44 8.72L31.44 5.33C31.44 4.52 31.26 3.47 29.15 3.47C27.57 3.47 26.32 4.30 26.32 5.07C26.32 5.52 26.84 5.73 27.10 5.73C27.40 5.73 27.48 5.57 27.55 5.33C27.86 4.30 28.43 3.96 28.99 3.96C29.54 3.96 30.18 4.24 30.18 5.36L30.18 5.95C29.83 6.31 28.48 6.66 27.37 7.01C26.36 7.32 26.07 8.02 26.07 8.68ZM27.48 8.48C27.48 7.83 27.79 7.49 28.57 7.20C29.13 6.99 29.88 6.72 30.18 6.52L30.18 8.50C30.18 9.63 29.32 9.93 28.77 9.93C27.90 9.93 27.48 9.31 27.48 8.48ZM33.00 10.50L36.40 10.50L36.40 10.09C35.43 10.02 35.35 9.97 35.35 9.28L35.35 6.01C35.35 5.66 35.36 5.46 35.48 5.25C35.77 4.69 36.41 4.23 37.16 4.23C38.11 4.23 38.63 4.76 38.63 5.98L38.63 9.28C38.63 9.97 38.56 10.02 37.58 10.09L37.58 10.50L40.99 10.50L40.99 10.09C40.03 10.02 39.94 9.97 39.94 9.28L39.94 5.70C39.94 4.28 39.17 3.47 37.87 3.47C36.85 3.47 36.22 3.95 35.34 4.54L35.34 0.20L35.24 0.11L33.05 0.46L33.05 0.81L33.59 0.88C33.95 0.94 34.03 1.01 34.03 1.51L34.03 9.28C34.03 9.97 33.98 10.02 33.00 10.09ZM41.65 10.50L45.07 10.50L45.07 10.09C44.07 10.02 44.02 10.00 44.02 9.28L44.02 6.01C44.02 5.66 44.03 5.46 44.13 5.26C44.39 4.70 45.01 4.23 45.78 4.23C46.98 4.23 47.12 5.11 47.12 5.98L47.12 9.28C47.12 10.00 47.08 10.02 46.07 10.09L46.07 10.50L49.49 10.50L49.49 10.09C48.50 10.02 48.44 10.00 48.44 9.28L48.44 6.01C48.44 5.66 48.45 5.46 48.54 5.24C48.75 4.68 49.35 4.23 50.13 4.23C51.02 4.23 51.55 4.73 51.55 5.98L51.55 9.28C51.55 10.00 51.51 10.02 50.50 10.09L50.50 10.50L53.91 10.50L53.91 10.09C52.92 10.02 52.86 10.00 52.86 9.28L52.86 5.70C52.86 4.28 52.11 3.47 50.78 3.47C49.63 3.47 48.80 4.24 48.31 4.55C47.98 3.89 47.45 3.47 46.47 3.47C45.39 3.47 44.51 4.17 44.02 4.54L43.89 3.47L41.72 3.82L41.72 4.17L42.25 4.24C42.62 4.30 42.70 4.37 42.70 4.87L42.70 9.28C42.70 10.00 42.66 10.02 41.65 10.09ZM54.81 8.68C54.81 9.73 55.51 10.67 56.83 10.67C57.64 10.67 58.46 10.12 58.91 9.83C59.11 10.35 59.33 10.67 59.82 10.67C60.34 10.67 60.94 10.51 61.47 10.25L61.39 9.91C61.19 9.95 60.89 9.98 60.68 9.93C60.42 9.87 60.19 9.60 60.19 8.72L60.19 5.33C60.19 4.52 60.00 3.47 57.89 3.47C56.31 3.47 55.06 4.30 55.06 5.07C55.06 5.52 55.58 5.73 55.85 5.73C56.14 5.73 56.22 5.57 56.29 5.33C56.60 4.30 57.18 3.96 57.74 3.96C58.28 3.96 58.93 4.24 58.93 5.36L58.93 5.95C58.58 6.31 57.22 6.66 56.11 7.01C55.10 7.32 54.81 8.02 54.81 8.68ZM56.22 8.48C56.22 7.83 56.53 7.49 57.32 7.20C57.88 6.99 58.62 6.72 58.93 6.52L58.93 8.50C58.93 9.63 58.06 9.93 57.51 9.93C56.64 9.93 56.22 9.31 56.22 8.48ZM61.89 10.50L65.31 10.50L65.31 10.09C64.32 10.02 64.26 10.00 64.26 9.28L64.26 6.01C64.26 5.66 64.29 5.46 64.40 5.24C64.69 4.69 65.32 4.23 66.07 4.23C67.02 4.23 67.54 4.76 67.54 5.98L67.54 9.28C67.54 10.00 67.49 10.02 66.49 10.09L66.49 10.50L69.90 10.50L69.90 10.09C68.91 10.02 68.85 10.00 68.85 9.28L68.85 5.70C68.85 4.28 68.08 3.47 66.79 3.47C65.76 3.47 65.11 3.98 64.25 4.54L64.05 3.47L61.96 3.82L61.96 4.17L62.50 4.24C62.86 4.30 62.94 4.37 62.94 4.87L62.94 9.28C62.94 10.00 62.90 10.02 61.89 10.09Z"></path></g><defs data-v-fde0c5aa=""><!----></defs><g data-v-fde0c5aa="" id="e142b5e6-eeee-457b-b8b5-af543ddbb0e3" stroke="none" fill="#6366f1" transform="matrix(0.759164321909642,0,0,0.759164321909642,112.0417839045179,76.31037611032824)"><path d="M5 20.1l7.4-7.4 26.1 26.1 7.5 7.4-7.5 7.4-26.1 26.1L5 72.3l26.1-26.1L5 20.1zm90 67.2V75.7H48.8v11.6H95z"></path></g><defs data-v-fde0c5aa=""><!----></defs><g data-v-fde0c5aa="" id="1bbe36f6-44e3-49d7-9b55-0710c29ff912" fill="#6366f1" transform="matrix(0.38771248686187804,0,0,0.38771248686187804,52.298389514226855,208.64740117704076)">
<path d="M8.43 12.21...3.26 9.91Z"></path>
  <!-- Text element added below -->
  <text x="-80" y="30" font-family="LinguisticsPro-Regular" font-size="30" fill="#6366f1">CREATING SEAMLESS WEB EXPERICENCES</text></g></svg>