<svg data-v-fde0c5aa="" xmlns="http://www.w3.org/2000/svg" viewBox="0 0 300 300" class="iconLeftSlogan"><!----><defs data-v-fde0c5aa=""><!----></defs><rect data-v-fde0c5aa="" fill="transparent" x="0" y="0" width="300px" height="300px" class="logo-background-square"></rect><defs data-v-fde0c5aa=""><!----></defs><g data-v-fde0c5aa="" id="3f2ad0b4-3463-4fe3-b6f7-66481e521976" fill="#000000" transform="matrix(2.159539891054069,0,0,2.159539891054069,109.0481563249858,128.36007953541625)"><path d="M0.48 10.50L3.79 10.50L3.79 10.09C2.88 10.02 2.55 9.98 2.46 9.39C2.39 8.93 2.37 8.40 2.37 7.66L2.37 2.10L2.39 2.10L6.01 10.33L6.38 10.33L10.04 2.10L10.08 2.10L10.08 9.20C10.08 9.98 10.05 10.01 8.82 10.09L8.82 10.50L12.73 10.50L12.73 10.09C11.51 10.01 11.47 9.98 11.47 9.20L11.47 2.11C11.47 1.33 11.51 1.30 12.73 1.22L12.73 0.81L9.91 0.81C9.44 2.06 8.86 3.29 8.30 4.52L6.62 8.27L6.59 8.27L4.94 4.54C4.40 3.29 3.81 2.06 3.30 0.81L0.46 0.81L0.46 1.22C1.69 1.30 1.72 1.33 1.72 2.11L1.72 7.66C1.72 8.40 1.69 8.93 1.62 9.39C1.54 9.98 1.20 10.04 0.48 10.09ZM16.86 10.50L20.55 10.50L20.55 10.09C19.96 10.04 19.64 10.04 19.54 9.87C19.50 9.81 19.50 9.80 19.50 9.20L19.50 5.94L20.47 5.94C21.31 5.94 21.95 6.20 22.19 7.15C22.29 7.55 22.44 8.65 22.60 9.30C22.81 10.19 23.34 10.50 24.16 10.50L25.30 10.50L25.30 10.09C24.21 9.98 23.98 9.20 23.86 8.25C23.69 7 23.44 6.06 21.95 5.70L21.95 5.67C23.27 5.42 24.23 4.54 24.23 3.21C24.23 1.86 23.39 0.81 20.94 0.81L16.86 0.81L16.86 1.22C18.09 1.30 18.12 1.33 18.12 2.11L18.12 9.20C18.12 9.98 18.09 10.01 16.86 10.09ZM19.50 5.45L19.50 2.00C19.50 1.41 19.60 1.30 20.52 1.30C21.56 1.30 22.74 1.68 22.74 3.33C22.74 4.80 21.97 5.45 20.61 5.45ZM26.07 8.68C26.07 9.73 26.77 10.67 28.08 10.67C28.90 10.67 29.72 10.12 30.17 9.83C30.37 10.35 30.59 10.67 31.08 10.67C31.60 10.67 32.20 10.51 32.73 10.25L32.65 9.91C32.45 9.95 32.14 9.98 31.93 9.93C31.68 9.87 31.44 9.60 31.44 8.72L31.44 5.33C31.44 4.52 31.26 3.47 29.15 3.47C27.57 3.47 26.32 4.30 26.32 5.07C26.32 5.52 26.84 5.73 27.10 5.73C27.40 5.73 27.48 5.57 27.55 5.33C27.86 4.30 28.43 3.96 28.99 3.96C29.54 3.96 30.18 4.24 30.18 5.36L30.18 5.95C29.83 6.31 28.48 6.66 27.37 7.01C26.36 7.32 26.07 8.02 26.07 8.68ZM27.48 8.48C27.48 7.83 27.79 7.49 28.57 7.20C29.13 6.99 29.88 6.72 30.18 6.52L30.18 8.50C30.18 9.63 29.32 9.93 28.77 9.93C27.90 9.93 27.48 9.31 27.48 8.48ZM33.00 10.50L36.40 10.50L36.40 10.09C35.43 10.02 35.35 9.97 35.35 9.28L35.35 6.01C35.35 5.66 35.36 5.46 35.48 5.25C35.77 4.69 36.41 4.23 37.16 4.23C38.11 4.23 38.63 4.76 38.63 5.98L38.63 9.28C38.63 9.97 38.56 10.02 37.58 10.09L37.58 10.50L40.99 10.50L40.99 10.09C40.03 10.02 39.94 9.97 39.94 9.28L39.94 5.70C39.94 4.28 39.17 3.47 37.87 3.47C36.85 3.47 36.22 3.95 35.34 4.54L35.34 0.20L35.24 0.11L33.05 0.46L33.05 0.81L33.59 0.88C33.95 0.94 34.03 1.01 34.03 1.51L34.03 9.28C34.03 9.97 33.98 10.02 33.00 10.09ZM41.65 10.50L45.07 10.50L45.07 10.09C44.07 10.02 44.02 10.00 44.02 9.28L44.02 6.01C44.02 5.66 44.03 5.46 44.13 5.26C44.39 4.70 45.01 4.23 45.78 4.23C46.98 4.23 47.12 5.11 47.12 5.98L47.12 9.28C47.12 10.00 47.08 10.02 46.07 10.09L46.07 10.50L49.49 10.50L49.49 10.09C48.50 10.02 48.44 10.00 48.44 9.28L48.44 6.01C48.44 5.66 48.45 5.46 48.54 5.24C48.75 4.68 49.35 4.23 50.13 4.23C51.02 4.23 51.55 4.73 51.55 5.98L51.55 9.28C51.55 10.00 51.51 10.02 50.50 10.09L50.50 10.50L53.91 10.50L53.91 10.09C52.92 10.02 52.86 10.00 52.86 9.28L52.86 5.70C52.86 4.28 52.11 3.47 50.78 3.47C49.63 3.47 48.80 4.24 48.31 4.55C47.98 3.89 47.45 3.47 46.47 3.47C45.39 3.47 44.51 4.17 44.02 4.54L43.89 3.47L41.72 3.82L41.72 4.17L42.25 4.24C42.62 4.30 42.70 4.37 42.70 4.87L42.70 9.28C42.70 10.00 42.66 10.02 41.65 10.09ZM54.81 8.68C54.81 9.73 55.51 10.67 56.83 10.67C57.64 10.67 58.46 10.12 58.91 9.83C59.11 10.35 59.33 10.67 59.82 10.67C60.34 10.67 60.94 10.51 61.47 10.25L61.39 9.91C61.19 9.95 60.89 9.98 60.68 9.93C60.42 9.87 60.19 9.60 60.19 8.72L60.19 5.33C60.19 4.52 60.00 3.47 57.89 3.47C56.31 3.47 55.06 4.30 55.06 5.07C55.06 5.52 55.58 5.73 55.85 5.73C56.14 5.73 56.22 5.57 56.29 5.33C56.60 4.30 57.18 3.96 57.74 3.96C58.28 3.96 58.93 4.24 58.93 5.36L58.93 5.95C58.58 6.31 57.22 6.66 56.11 7.01C55.10 7.32 54.81 8.02 54.81 8.68ZM56.22 8.48C56.22 7.83 56.53 7.49 57.32 7.20C57.88 6.99 58.62 6.72 58.93 6.52L58.93 8.50C58.93 9.63 58.06 9.93 57.51 9.93C56.64 9.93 56.22 9.31 56.22 8.48ZM61.89 10.50L65.31 10.50L65.31 10.09C64.32 10.02 64.26 10.00 64.26 9.28L64.26 6.01C64.26 5.66 64.29 5.46 64.40 5.24C64.69 4.69 65.32 4.23 66.07 4.23C67.02 4.23 67.54 4.76 67.54 5.98L67.54 9.28C67.54 10.00 67.49 10.02 66.49 10.09L66.49 10.50L69.90 10.50L69.90 10.09C68.91 10.02 68.85 10.00 68.85 9.28L68.85 5.70C68.85 4.28 68.08 3.47 66.79 3.47C65.76 3.47 65.11 3.98 64.25 4.54L64.05 3.47L61.96 3.82L61.96 4.17L62.50 4.24C62.86 4.30 62.94 4.37 62.94 4.87L62.94 9.28C62.94 10.00 62.90 10.02 61.89 10.09Z"></path></g><defs data-v-fde0c5aa=""><linearGradient data-v-fde0c5aa="" gradientTransform="rotate(25)" id="77d145a3-ddf5-4b94-b21c-faa0d8f86b74" x1="0%" y1="0%" x2="100%" y2="0%"><stop data-v-fde0c5aa="" offset="0%" stop-color="#6366f1 " stop-opacity="1"></stop><stop data-v-fde0c5aa="" offset="100%" stop-color="#6366f1 " stop-opacity="1"></stop></linearGradient></defs><g data-v-fde0c5aa="" id="730681fa-92d4-457f-bfbe-591c89643ba7" stroke="none" fill="url(#77d145a3-ddf5-4b94-b21c-faa0d8f86b74)" transform="matrix(0.6337949410321252,0,0,0.6337949410321252,36.83102529483937,118.31025536612957)"><path d="M5 20.1l7.4-7.4 26.1 26.1 7.5 7.4-7.5 7.4-26.1 26.1L5 72.3l26.1-26.1L5 20.1zm90 67.2V75.7H48.8v11.6H95z"></path></g><defs data-v-fde0c5aa=""><!----></defs><g data-v-fde0c5aa="" id="736ced2b-d2a1-4fe2-99b0-718916831feb" fill="#000000" transform="matrix(0.3035780612922445,0,0,0.3035780612922445,109.8745767555616,160.76485717809274)"><path d="M5.11 10.57C2.86 10.57 1.60 8.93 1.60 6.85C1.60 4.76 2.86 3.12 5.11 3.12C6.64 3.12 7.64 3.85 8.12 4.98L9.23 4.98C8.64 3.29 7.13 2.10 5.03 2.10C2.24 2.10 0.55 4.21 0.55 6.85C0.55 9.48 2.24 11.59 5.03 11.59C7.13 11.59 8.64 10.40 9.23 8.71L8.12 8.71C7.64 9.84 6.64 10.57 5.11 10.57ZM18.84 7.92L22.06 7.92L24.30 11.48L25.55 11.48L23.11 7.74C24.15 7.50 25.35 6.90 25.35 5.11C25.35 3.35 24.14 2.21 22.23 2.21L17.79 2.21L17.79 11.48L18.84 11.48ZM18.84 3.21L22.11 3.21C23.42 3.21 24.30 3.93 24.30 5.11C24.30 6.55 23.04 6.93 22.05 6.93L18.84 6.93ZM40.98 3.22L40.98 2.21L34.16 2.21L34.16 11.48L40.98 11.48L40.98 10.47L35.21 10.47L35.21 7.35L40.36 7.35L40.36 6.33L35.21 6.33L35.21 3.22ZM53.83 2.21L52.51 2.21L48.58 11.48L49.74 11.48L50.88 8.79L55.47 8.79L56.60 11.48L57.76 11.48ZM51.28 7.83L53.17 3.30L55.06 7.83ZM71.69 2.21L64.18 2.21L64.18 3.22L67.41 3.22L67.41 11.48L68.46 11.48L68.46 3.22L71.69 3.22ZM81.07 2.21L80.02 2.21L80.02 11.48L81.07 11.48ZM97.29 2.21L97.29 10.01L91.56 2.21L90.34 2.21L90.34 11.48L91.39 11.48L91.39 3.65L97.12 11.48L98.34 11.48L98.34 2.21ZM111.58 2.10C108.79 2.10 107.02 4.21 107.02 6.85C107.02 9.48 108.72 11.59 111.55 11.59C113.23 11.59 114.32 10.74 114.91 9.84L114.91 11.48L115.88 11.48L115.88 6.55L111.52 6.55L111.52 7.50L114.91 7.50C114.91 9.44 113.32 10.57 111.64 10.57C109.38 10.57 108.07 8.93 108.07 6.85C108.07 4.76 109.41 3.12 111.66 3.12C113.08 3.12 114.09 3.74 114.65 4.73L115.79 4.73C115.11 3.18 113.57 2.10 111.58 2.10ZM135.32 4.65C135.32 4.03 135.69 3.08 137.79 3.08C139.48 3.08 140.27 3.82 140.38 4.75L141.46 4.75C141.37 3.36 140.25 2.10 137.79 2.10C135.46 2.10 134.30 3.15 134.30 4.66C134.30 7.84 140.64 6.69 140.64 8.96C140.64 10.05 139.66 10.60 138.10 10.60C136.49 10.60 135.18 10.05 135.11 8.71L134.02 8.71C134.16 10.37 135.28 11.59 138.03 11.59C140.31 11.59 141.69 10.64 141.69 8.92C141.69 5.68 135.32 6.80 135.32 4.65ZM157.14 3.22L157.14 2.21L150.32 2.21L150.32 11.48L157.14 11.48L157.14 10.47L151.37 10.47L151.37 7.35L156.52 7.35L156.52 6.33L151.37 6.33L151.37 3.22ZM169.99 2.21L168.67 2.21L164.74 11.48L165.90 11.48L167.03 8.79L171.63 8.79L172.76 11.48L173.92 11.48ZM167.44 7.83L169.33 3.30L171.22 7.83ZM189.90 2.21L186.63 6.61L183.32 2.21L182.10 2.21L182.10 11.48L183.15 11.48L183.15 3.81L186.63 8.22L190.06 3.81L190.06 11.48L191.11 11.48L191.11 2.21ZM200.38 2.21L200.38 11.48L206.49 11.48L206.49 10.47L201.43 10.47L201.43 2.21ZM221.66 3.22L221.66 2.21L214.84 2.21L214.84 11.48L221.66 11.48L221.66 10.47L215.89 10.47L215.89 7.35L221.05 7.35L221.05 6.33L215.89 6.33L215.89 3.22ZM230.86 4.65C230.86 4.03 231.22 3.08 233.32 3.08C235.02 3.08 235.80 3.82 235.91 4.75L236.99 4.75C236.91 3.36 235.79 2.10 233.32 2.10C231 2.10 229.84 3.15 229.84 4.66C229.84 7.84 236.18 6.69 236.18 8.96C236.18 10.05 235.20 10.60 233.63 10.60C232.02 10.60 230.72 10.05 230.65 8.71L229.56 8.71C229.70 10.37 230.82 11.59 233.56 11.59C235.84 11.59 237.23 10.64 237.23 8.92C237.23 5.68 230.86 6.80 230.86 4.65ZM246.47 4.65C246.47 4.03 246.83 3.08 248.93 3.08C250.63 3.08 251.41 3.82 251.52 4.75L252.60 4.75C252.52 3.36 251.40 2.10 248.93 2.10C246.61 2.10 245.45 3.15 245.45 4.66C245.45 7.84 251.79 6.69 251.79 8.96C251.79 10.05 250.81 10.60 249.24 10.60C247.63 10.60 246.33 10.05 246.26 8.71L245.17 8.71C245.31 10.37 246.43 11.59 249.17 11.59C251.45 11.59 252.84 10.64 252.84 8.92C252.84 5.68 246.47 6.80 246.47 4.65ZM277.02 3.70L279.52 11.48L280.71 11.48L283.60 2.21L282.49 2.21L280.11 10.00L277.62 2.21L276.42 2.21L273.92 10.00L271.54 2.21L270.44 2.21L273.32 11.48L274.51 11.48ZM298.68 3.22L298.68 2.21L291.86 2.21L291.86 11.48L298.68 11.48L298.68 10.47L292.91 10.47L292.91 7.35L298.06 7.35L298.06 6.33L292.91 6.33L292.91 3.22ZM313.21 6.75C313.87 6.45 314.45 5.85 314.45 4.66C314.45 3.54 313.71 2.21 311.53 2.21L307.37 2.21L307.37 11.48L311.77 11.48C313.88 11.48 314.93 10.43 314.93 9.04C314.93 7.66 313.99 7 313.21 6.75ZM308.42 3.21L311.64 3.21C312.91 3.21 313.40 3.98 313.40 4.75C313.40 5.88 312.49 6.36 311.53 6.36L308.42 6.36ZM311.88 10.49L308.42 10.49L308.42 7.31L311.77 7.31C313.24 7.31 313.88 8.09 313.88 8.96C313.88 9.93 313.15 10.49 311.88 10.49ZM340.44 3.22L340.44 2.21L333.62 2.21L333.62 11.48L340.44 11.48L340.44 10.47L334.67 10.47L334.67 7.35L339.82 7.35L339.82 6.33L334.67 6.33L334.67 3.22ZM356.37 2.21L355.04 2.21L352.28 5.85L349.54 2.21L348.21 2.21L351.65 6.69L347.96 11.48L349.29 11.48L352.28 7.50L355.29 11.48L356.62 11.48L352.93 6.69ZM365.76 8.18L368.89 8.18C370.86 8.18 372.08 7.03 372.08 5.19C372.08 3.37 370.86 2.21 368.89 2.21L364.71 2.21L364.71 11.48L365.76 11.48ZM368.82 3.21C370.27 3.21 371.03 3.96 371.03 5.19C371.03 6.44 370.27 7.20 368.82 7.20L365.76 7.20L365.76 3.21ZM387.32 3.22L387.32 2.21L380.51 2.21L380.51 11.48L387.32 11.48L387.32 10.47L381.56 10.47L381.56 7.35L386.71 7.35L386.71 6.33L381.56 6.33L381.56 3.22ZM397.07 7.92L400.29 7.92L402.53 11.48L403.77 11.48L401.34 7.74C402.37 7.50 403.58 6.90 403.58 5.11C403.58 3.35 402.36 2.21 400.46 2.21L396.02 2.21L396.02 11.48L397.07 11.48ZM397.07 3.21L400.33 3.21C401.65 3.21 402.53 3.93 402.53 5.11C402.53 6.55 401.27 6.93 400.27 6.93L397.07 6.93ZM413.43 2.21L412.38 2.21L412.38 11.48L413.43 11.48ZM429.52 3.22L429.52 2.21L422.70 2.21L422.70 11.48L429.52 11.48L429.52 10.47L423.75 10.47L423.75 7.35L428.90 7.35L428.90 6.33L423.75 6.33L423.75 3.22ZM445.16 2.21L445.16 10.01L439.43 2.21L438.21 2.21L438.21 11.48L439.26 11.48L439.26 3.65L444.99 11.48L446.21 11.48L446.21 2.21ZM459.45 10.57C457.20 10.57 455.94 8.93 455.94 6.85C455.94 4.76 457.20 3.12 459.45 3.12C460.98 3.12 461.99 3.85 462.46 4.98L463.57 4.98C462.98 3.29 461.47 2.10 459.37 2.10C456.58 2.10 454.89 4.21 454.89 6.85C454.89 9.48 456.58 11.59 459.37 11.59C461.47 11.59 462.98 10.40 463.57 8.71L462.46 8.71C461.99 9.84 460.98 10.57 459.45 10.57ZM478.95 3.22L478.95 2.21L472.14 2.21L472.14 11.48L478.95 11.48L478.95 10.47L473.19 10.47L473.19 7.35L478.34 7.35L478.34 6.33L473.19 6.33L473.19 3.22ZM488.15 4.65C488.15 4.03 488.52 3.08 490.62 3.08C492.31 3.08 493.09 3.82 493.21 4.75L494.28 4.75C494.20 3.36 493.08 2.10 490.62 2.10C488.29 2.10 487.13 3.15 487.13 4.66C487.13 7.84 493.47 6.69 493.47 8.96C493.47 10.05 492.49 10.60 490.92 10.60C489.31 10.60 488.01 10.05 487.94 8.71L486.85 8.71C486.99 10.37 488.11 11.59 490.85 11.59C493.14 11.59 494.52 10.64 494.52 8.92C494.52 5.68 488.15 6.80 488.15 4.65Z"></path></g></svg>