
  <svg width="273" height="48" viewBox="0 0 1456 256" fill="none" xmlns="http://www.w3.org/2000/svg" xmlns:xlink="http://www.w3.org/1999/xlink" version="1.1">
    
        <g transform="translate(0, 0)">
          <svg width="256" height="256" viewBox="0 0 256 256" fill="none" xmlns="http://www.w3.org/2000/svg">
<rect width="256" height="256" rx="60" fill="#663399"/>
<path d="M228 128H164.364V146.182H208C201.636 173.455 181.636 196.182 155.273 205.273L50.7273 100.727C61.6364 68.9091 92.5455 46.1818 128 46.1818C155.273 46.1818 179.818 59.8182 195.273 80.7273L208.909 68.9091C190.727 44.3636 161.636 28 128 28C80.7273 28 40.7273 61.6364 30.7273 106.182L150.727 226.182C194.364 215.273 228 175.273 228 128ZM28 128.909C28 154.364 38 178.909 57.0909 198C76.1818 217.091 101.636 227.091 126.182 227.091L28 128.909Z" fill="white"/>
</svg>

        </g>
         
        <g transform="translate(300, 0)">
          <svg xmlns="http://www.w3.org/2000/svg" width="256" height="256" fill="none" viewBox="0 0 256 256"><rect width="256" height="256" fill="#242938" rx="60"/><path fill="#E535AB" d="M47.8621 176.192L55.2041 180.431L136.997 38.7664L129.655 34.5274L47.8621 176.192Z"/><path fill="#E535AB" d="M209.766 164.875H46.1809V173.353H209.766V164.875Z"/><path fill="#E535AB" d="M49.4177 169.637L131.241 216.879L135.48 209.537L53.6567 162.295L49.4177 169.637Z"/><path fill="#E535AB" d="M120.498 46.5121L202.321 93.7542L206.56 86.4122L124.737 39.1701L120.498 46.5121Z"/><path fill="#E535AB" d="M49.4404 86.3797L53.6794 93.7217L135.503 46.4796L131.264 39.1376L49.4404 86.3797Z"/><path fill="#E535AB" d="M119.02 38.7675L200.812 180.432L208.154 176.193L126.362 34.5285L119.02 38.7675Z"/><path fill="#E535AB" d="M61.145 80.7577H52.667V175.242H61.145V80.7577Z"/><path fill="#E535AB" d="M203.331 80.7577H194.853V175.242H203.331V80.7577Z"/><path fill="#E535AB" d="M126.095 206.877L129.798 213.291L200.962 172.203L197.259 165.79L126.095 206.877Z"/><path fill="#E535AB" d="M214.567 178C209.664 186.529 198.734 189.44 190.205 184.537C181.676 179.634 178.765 168.705 183.668 160.176C188.571 151.646 199.501 148.735 208.03 153.638C216.61 158.592 219.521 169.471 214.567 178Z"/><path fill="#E535AB" d="M72.2789 95.8244C67.3759 104.353 56.4464 107.265 47.9173 102.362C39.3882 97.4587 36.4771 86.5292 41.38 78.0001C46.283 69.4709 57.2125 66.5598 65.7416 71.4628C74.2707 76.4168 77.1819 87.2953 72.2789 95.8244Z"/><path fill="#E535AB" d="M41.431 178C36.5281 169.471 39.4392 158.592 47.9683 153.638C56.4974 148.735 67.3759 151.646 72.3299 160.176C77.2329 168.705 74.3217 179.583 65.7926 184.537C57.2124 189.44 46.334 186.529 41.431 178Z"/><path fill="#E535AB" d="M183.719 95.8244C178.816 87.2953 181.727 76.4168 190.256 71.4628C198.786 66.5598 209.664 69.4709 214.618 78.0001C219.521 86.5292 216.61 97.4076 208.081 102.362C199.552 107.265 188.622 104.353 183.719 95.8244Z"/><path fill="#E535AB" d="M127.999 228C118.142 228 110.175 220.033 110.175 210.176C110.175 200.319 118.142 192.351 127.999 192.351C137.856 192.351 145.823 200.319 145.823 210.176C145.823 219.982 137.856 228 127.999 228Z"/><path fill="#E535AB" d="M127.999 63.6486C118.142 63.6486 110.175 55.6813 110.175 45.8243C110.175 35.9673 118.142 28 127.999 28C137.856 28 145.823 35.9673 145.823 45.8243C145.823 55.6813 137.856 63.6486 127.999 63.6486Z"/></svg>
        </g>
         
        <g transform="translate(600, 0)">
          <svg xmlns="http://www.w3.org/2000/svg" width="256" height="256" fill="none" viewBox="0 0 256 256"><rect width="256" height="256" fill="#242938" rx="60"/><path fill="#00D8FF" d="M128.001 146.951C138.305 146.951 146.657 138.598 146.657 128.295C146.657 117.992 138.305 109.639 128.001 109.639C117.698 109.639 109.345 117.992 109.345 128.295C109.345 138.598 117.698 146.951 128.001 146.951Z"/><path fill-rule="evenodd" stroke="#00D8FF" stroke-width="8.911" d="M128.002 90.3633C153.05 90.3633 176.319 93.9575 193.864 99.9976C215.003 107.275 228 118.306 228 128.295C228 138.704 214.226 150.423 191.525 157.944C174.363 163.63 151.779 166.598 128.002 166.598C103.624 166.598 80.5389 163.812 63.1834 157.881C41.2255 150.376 28 138.506 28 128.295C28 118.387 40.4096 107.441 61.2515 100.175C78.8617 94.0353 102.705 90.3633 127.998 90.3633H128.002Z" clip-rule="evenodd"/><path fill-rule="evenodd" stroke="#00D8FF" stroke-width="8.911" d="M94.9811 109.438C107.495 87.7402 122.232 69.3783 136.23 57.1971C153.094 42.5206 169.144 36.7728 177.796 41.7623C186.813 46.9623 190.084 64.7496 185.259 88.1712C181.614 105.879 172.9 126.925 161.021 147.523C148.842 168.641 134.897 187.247 121.09 199.315C103.619 214.587 86.7284 220.114 77.8833 215.013C69.3003 210.067 66.0181 193.846 70.1356 172.161C73.6145 153.838 82.3451 131.349 94.977 109.438L94.9811 109.438Z" clip-rule="evenodd"/><path fill-rule="evenodd" stroke="#00D8FF" stroke-width="8.911" d="M95.0123 147.578C82.4633 125.904 73.9194 103.962 70.3531 85.7517C66.0602 63.8109 69.0954 47.0355 77.7401 42.0315C86.7485 36.8163 103.792 42.866 121.674 58.7437C135.194 70.7479 149.077 88.8052 160.99 109.383C173.204 130.481 182.358 151.856 185.919 169.844C190.425 192.608 186.778 210.001 177.941 215.116C169.367 220.08 153.676 214.825 136.945 200.427C122.809 188.263 107.685 169.468 95.0123 147.578Z" clip-rule="evenodd"/></svg>
        </g>
         
        <g transform="translate(900, 0)">
          <svg width="256" height="256" viewBox="0 0 256 256" fill="none" xmlns="http://www.w3.org/2000/svg">
<rect width="256" height="256" rx="60" fill="url(#paint0_linear_163_1214)"/>
<path d="M11.487 129.079L61.791 149.463V163.732L2.24152 136.141V127.769L11.487 129.079ZM61.791 112.336L11.5598 133.01L2.24152 134.03V125.585L61.791 98.067V112.336Z" fill="white"/>
<path d="M241.371 131.991L189.611 111.826V97.9214L251.781 125.439V133.957L241.371 131.991ZM189.611 149.754L241.517 129.152L251.781 127.623V136.068L189.611 163.659V149.754Z" fill="white"/>
<path fill-rule="evenodd" clip-rule="evenodd" d="M176.077 61.0989C175.789 65.6652 173.732 70.4334 174.305 74.8724C177.898 81.2257 185.806 82.2394 192.33 82.6749C196.85 83.4825 196.793 80.4898 196.49 77.1276C196.508 71.7532 196.526 66.3788 196.545 61.0044C189.722 61.0289 182.897 60.9367 176.077 61.0989ZM122.276 73.8698C111.168 75.7546 99.9082 81.0627 90.6673 87.453C83.2291 93.2417 97.0523 98.852 102.067 99.7898C112.157 99.9127 121.106 93.1074 127.734 86.0428C129.898 83.0722 132.601 78.5258 129.882 75.0835C127.806 73.2832 124.787 73.72 122.276 73.8698ZM145.913 90.0242C136.78 91.7632 128.09 95.5279 120.401 100.769C114.764 102.539 110.118 108.728 117.103 111.829C124.438 117.674 132.939 116.242 139.694 112.296C145.88 108.619 152.562 104.082 155.424 97.1602C158.127 89.5773 151.153 89.2957 145.913 90.0242ZM171.822 119.407C170.121 126.511 162.967 129.741 159.161 135.37C156.049 139.476 157.49 144.313 161.033 147.545C162.758 151.122 165.782 153.121 169.025 150.014C177.377 144.336 179.687 133.276 179.34 123.693C179.957 119.735 175.416 123.313 171.822 119.407V119.407ZM140.039 132.75C128.948 134.648 117.855 140.052 108.61 146.432C101.433 152.213 114.95 157.611 120.006 158.467C130.283 158.482 139.45 151.859 145.948 144.337C148.208 141.35 150.947 135.549 146.472 133.174C144.471 132.326 142.148 132.575 140.039 132.75V132.75Z" fill="#B956A6"/>
<path fill-rule="evenodd" clip-rule="evenodd" d="M90.6673 87.453C82.1375 90.8661 73.9085 95.0103 65.7834 99.3498C64.273 104.965 65.484 111.918 65.0925 118.075C65.063 143.391 65.0775 168.708 65.0726 194.024C71.3463 194.024 77.6201 194.024 83.8938 194.024C87.6933 190.446 92.4538 187.827 96.5811 184.578C112.475 173.179 128.364 161.736 144.237 150.369C145.405 150.894 144.657 143.498 142.095 148.635C136.024 154.348 127.966 159.047 119.437 158.588C114.597 156.996 106.795 154.295 106.746 148.364C110.153 144.353 100.46 150.464 97.8083 151.339C89.1857 155.479 80.7672 160.102 72.1272 164.165C74.2042 161.935 78.0889 159.856 80.842 157.644C100.515 143.522 120.183 129.345 139.903 115.234C143.696 112.571 147.36 109.666 151.27 107.177C151.627 108.556 152.297 100.584 149.389 105.492C143.461 111.368 135.465 115.742 127.032 115.802C122.289 114.362 112.187 110.919 114.436 104.795C115.533 102.646 104.248 109.376 109.234 105.581C114.541 101.703 119.89 97.8938 125.238 94.0562C127.939 93.8528 127.364 83.8205 123.694 90.2919C117.529 95.7088 109.429 100.665 100.938 99.4904C96.1682 98.1173 90.4448 95.4576 88.7114 90.4697C88.137 89.2716 91.9228 87.4054 90.6673 87.453ZM126.006 93.6462C125.533 94.9992 126.863 93.1517 126.006 93.6462V93.6462Z" fill="#FCCC44"/>
<path fill-rule="evenodd" clip-rule="evenodd" d="M179.899 80.7493C177.236 93.4665 174.325 106.775 171.822 119.407C179.014 128.471 179.711 113.681 180.969 109.499C183.002 100.758 185.41 94.1577 185.665 85.1075C186.205 82.0195 182.575 80.1486 179.899 80.7493ZM188.15 90.7215C187.925 92.0255 188.478 90.9666 188.15 90.7215V90.7215ZM179.76 119.236C180.106 119.981 180.106 118.49 179.76 119.236V119.236Z" fill="#62777F"/>
<path fill-rule="evenodd" clip-rule="evenodd" d="M184.616 82.1892C186.86 94.7924 179.427 110.102 176.996 121.984C182.516 117.922 186.781 99.492 187.871 92.2782C188.152 91.453 188.498 89.3766 188.573 89.3022C188.92 87.5506 192.153 84.5838 192.33 82.675C194.212 81.3466 183.08 81.1326 184.616 82.1892ZM180.039 119.236C179.692 119.981 179.692 118.49 180.039 119.236V119.236Z" fill="#4E5E67"/>
<path fill-rule="evenodd" clip-rule="evenodd" d="M90.8537 87.6628C87.742 90.7786 88.9097 90.0176 91.2264 87.4265L90.8537 87.6628ZM124.514 89.206C120.909 94.6231 107.909 99.1529 106.272 99.5038C114.092 98.0393 121.381 93.1749 126.51 87.4757C125.695 87.8387 125.211 88.6925 124.514 89.206ZM88.7155 90.965C90.6587 95.6369 97.7239 98.7415 101.157 99.4655C96.4698 97.9558 90.9525 95.2772 88.7155 90.965V90.965ZM125.726 93.6667C124.745 94.825 121.251 96.5579 119.409 98.2563C115.458 101.171 111.371 103.879 107.465 106.866C109.952 106.759 117.24 101.315 113.504 106.839C116.67 112.288 123.563 116.077 129.848 115.731C138.148 114.428 145.802 109.839 151.304 103.457C144.625 110.066 135.795 116.286 126.024 115.429C121.295 114.337 108.373 107.662 117.017 102.983C120.065 100.476 125.32 99.1626 125.915 94.7571C125.79 94.2071 126.815 93.6703 125.726 93.6668V93.6667ZM102.067 99.7899C105.212 100.201 105.212 99.3792 102.067 99.7899V99.7899ZM151.07 107.315C138.591 116.009 126.293 125.043 113.922 133.893C99.9022 143.927 85.9423 153.998 71.9258 164.024C77.1957 162.247 82.4758 158.777 87.7113 156.38C94.9202 152.566 102.523 149.553 109.269 144.92C122.607 137.068 136.713 129.587 146.972 117.574C149.211 114.948 151.456 110.721 151.556 107.878C151.233 107.969 151.478 106.741 151.07 107.315V107.315ZM108.61 146.432C106.365 148.969 105.453 150.782 107.783 147.556C107.742 147.93 109.674 145.553 108.61 146.432ZM142.766 147.646C136.852 153.882 128.105 158.38 119.898 158.683C129.386 158.752 137.946 153.12 144.374 146.476C143.952 145.966 143.097 147.664 142.766 147.646ZM144.573 149.606C124.704 164.07 104.149 179.073 84.2128 193.485C87.3539 194.47 94.1918 194.932 97.3122 190.911C103.953 186.329 111.418 182.96 118.08 178.316C127.727 172.056 138.056 165.214 143.535 154.693C143.796 153.282 145.735 150.744 144.573 149.606V149.606ZM106.76 150.524C107.682 154.416 119.208 158.883 117.958 158.028C113.708 156.538 109.492 154.216 106.76 150.524Z" fill="#DC9624"/>
<defs>
<linearGradient id="paint0_linear_163_1214" x1="0" y1="256" x2="256" y2="0" gradientUnits="userSpaceOnUse">
<stop stop-color="#DB7093"/>
<stop offset="1" stop-color="#F3B661"/>
</linearGradient>
</defs>
</svg>

        </g>
         
        <g transform="translate(1200, 0)">
          <svg width="256" height="256" viewBox="0 0 256 256" fill="none" xmlns="http://www.w3.org/2000/svg">
<rect width="256" height="256" rx="60" fill="#99424F"/>
<path d="M213.353 126.495C213.353 114.45 205.073 104.317 193.956 101.422L218.854 28H95.461L120.418 101.654C109.647 104.781 101.715 114.74 101.715 126.552C101.715 135.238 106.057 142.939 112.658 147.687C110.053 151.393 107.042 154.81 103.625 158.052C97.1981 164.074 90.076 168.706 82.3747 171.775C75.4263 167.085 72.4153 158.805 75.1368 151.393C85.7332 148.151 93.4344 138.249 93.4344 126.61C93.4344 112.308 81.7957 100.727 67.5514 100.727C53.2491 100.727 41.6104 112.366 41.6104 126.668C41.6104 133.732 44.5056 140.218 49.1379 144.85C48.7326 145.661 48.3273 146.471 47.9219 147.34C44.0424 155.331 39.6417 164.364 37.9625 174.497C34.604 194.763 40.1049 211.034 53.3649 220.241C60.8345 225.394 69.0569 228 77.9161 228C93.1449 228 108.605 220.357 123.544 212.945C134.199 207.676 145.2 202.175 156.028 199.511C160.024 198.527 164.193 197.948 168.594 197.311C177.511 196.037 186.718 194.705 194.998 189.899C204.668 184.283 211.269 174.902 213.18 164.132C214.627 155.852 213.18 147.514 209.474 140.218C211.964 136.222 213.353 131.532 213.353 126.495V126.495ZM202.062 126.495C202.062 134.543 195.519 141.086 187.47 141.086C179.422 141.086 172.879 134.543 172.879 126.495C172.879 123.889 173.573 121.399 174.789 119.257C175.253 118.446 175.832 117.635 176.411 116.94C176.99 116.246 177.685 115.609 178.437 115.03L178.495 114.972C178.958 114.624 179.48 114.277 180.001 113.929C180.001 113.929 180.059 113.929 180.059 113.871C180.29 113.756 180.522 113.582 180.753 113.466C180.811 113.466 180.869 113.408 180.927 113.408C181.159 113.292 181.448 113.177 181.738 113.061C182.027 112.945 182.317 112.829 182.548 112.713C182.606 112.713 182.664 112.655 182.722 112.655C182.954 112.598 183.185 112.482 183.417 112.424C183.475 112.424 183.591 112.366 183.649 112.366C183.938 112.308 184.17 112.25 184.459 112.192H184.517L185.386 112.019C185.444 112.019 185.559 112.019 185.617 111.961C185.849 111.961 186.081 111.903 186.312 111.903H186.602C186.891 111.903 187.181 111.845 187.528 111.845H188.281C188.513 111.845 188.686 111.845 188.918 111.903H189.034C189.497 111.961 189.96 112.019 190.423 112.134C197.024 113.524 202.062 119.43 202.062 126.495V126.495ZM111.616 39.5808H202.699L181.796 101.248C180.927 101.422 180.059 101.712 179.19 102.001L157.187 57.1257L135.125 101.712C134.257 101.422 133.33 101.248 132.404 101.075L111.616 39.5808ZM153.017 121.457C151.917 116.014 149.138 111.15 145.2 107.56L157.187 83.3561L169.288 108.081C165.698 111.671 163.093 116.246 162.05 121.457H153.017ZM124.008 112.308C124.297 112.25 124.529 112.192 124.818 112.134H124.992C125.224 112.076 125.455 112.076 125.687 112.019H125.918C126.15 112.019 126.324 111.961 126.555 111.961H128.814C129.045 111.961 129.219 112.019 129.393 112.019C129.509 112.019 129.566 112.019 129.682 112.076C129.914 112.134 130.088 112.134 130.319 112.192C130.377 112.192 130.435 112.192 130.551 112.25C130.84 112.308 131.13 112.366 131.361 112.424H131.419C131.651 112.482 131.883 112.54 132.114 112.655C132.172 112.655 132.23 112.713 132.346 112.713C132.52 112.771 132.751 112.829 132.925 112.945C132.983 112.945 133.041 113.003 133.099 113.003C133.33 113.119 133.562 113.177 133.793 113.292H133.851C134.141 113.408 134.372 113.524 134.604 113.698H134.662C134.894 113.814 135.125 113.987 135.357 114.103C135.415 114.103 135.415 114.161 135.473 114.161C135.704 114.277 135.878 114.45 136.11 114.566L136.167 114.624C136.862 115.145 137.499 115.724 138.136 116.303L138.194 116.361C138.773 116.998 139.352 117.693 139.815 118.446C141.321 120.762 142.189 123.483 142.189 126.437C142.189 134.485 135.646 141.028 127.598 141.028C119.549 141.028 113.006 134.485 113.006 126.437C112.948 119.662 117.638 113.929 124.008 112.308V112.308ZM67.0302 111.903C75.0789 111.903 81.622 118.446 81.622 126.495C81.622 134.543 75.0789 141.086 67.0302 141.086C58.9816 141.086 52.4384 134.543 52.4384 126.495C52.4384 118.446 58.9816 111.903 67.0302 111.903ZM201.715 162.105C200.441 169.517 195.866 176.002 189.149 179.882C182.838 183.53 175.079 184.688 166.914 185.846C162.456 186.483 157.766 187.178 153.249 188.278C141.205 191.231 129.624 197.021 118.391 202.58C104.031 209.702 90.4813 216.419 77.9161 216.419C71.373 216.419 65.5247 214.566 59.9659 210.687C47.2271 201.885 47.864 185.383 49.3695 176.35C50.7592 167.896 54.6388 159.963 58.3446 152.378C58.5763 151.914 58.75 151.509 58.9816 151.046C60.2555 151.509 61.5873 151.856 62.977 152.088C60.7766 164.364 67.0302 177.045 79.19 183.298L81.3904 184.456L83.7644 183.588C93.8976 179.998 103.278 174.149 111.558 166.332C116.249 161.932 120.244 157.184 123.602 152.03C124.934 152.262 126.266 152.32 127.598 152.32C139.642 152.32 149.775 144.039 152.67 132.922H162.398C165.293 144.097 175.426 152.32 187.47 152.32C192.276 152.32 196.735 150.988 200.557 148.73C202.062 153.072 202.525 157.589 201.715 162.105V162.105Z" fill="white"/>
</svg>

        </g>
        
  </svg>
  