
  <svg width="273" height="48" viewBox="0 0 1456 256" fill="none" xmlns="http://www.w3.org/2000/svg" xmlns:xlink="http://www.w3.org/1999/xlink" version="1.1">
    
        <g transform="translate(0, 0)">
          <svg xmlns="http://www.w3.org/2000/svg" width="256" height="256" fill="none" viewBox="0 0 256 256"><rect width="256" height="256" fill="#242938" rx="60"/><path fill="#81CD39" d="M119.878 31.1164C124.797 28.3008 131.203 28.2883 136.117 31.1164C160.839 45.0855 185.569 59.0332 210.287 73.0108C214.937 75.6296 218.046 80.8038 217.999 86.1608V170.206C218.034 175.785 214.617 181.083 209.712 183.642C185.071 197.535 160.442 211.444 135.805 225.337C130.786 228.207 124.251 227.986 119.387 224.88C112 220.598 104.6 216.336 97.2121 212.058C95.7022 211.158 94.0004 210.442 92.9345 208.978C93.8766 207.708 95.5618 207.55 96.9309 206.995C100.014 206.014 102.847 204.44 105.679 202.913C106.396 202.423 107.27 202.611 107.957 203.049C114.274 206.671 120.536 210.399 126.874 213.986C128.226 214.767 129.595 213.73 130.751 213.086C154.931 199.419 179.141 185.805 203.318 172.134C204.214 171.703 204.709 170.752 204.636 169.771C204.653 142.046 204.64 114.317 204.645 86.5918C204.747 85.4785 204.103 84.455 203.096 83.999C178.541 70.1702 153.997 56.3205 129.446 42.4882C128.575 41.8893 127.426 41.8878 126.554 42.4837C102.002 56.3205 77.4638 70.1832 52.9124 84.011C51.9092 84.4675 51.236 85.4745 51.3554 86.5918C51.3596 114.317 51.3554 142.046 51.3554 169.775C51.2682 170.756 51.801 171.687 52.6906 172.109C59.2422 175.824 65.8024 179.513 72.3582 183.216C76.0516 185.203 80.5863 186.385 84.6555 184.862C88.2463 183.574 90.7633 179.909 90.6948 176.097C90.7288 148.534 90.6778 120.967 90.7203 93.4078C90.6309 92.1841 91.7912 91.1731 92.981 91.2885C96.1292 91.267 99.281 91.2461 102.429 91.297C103.743 91.267 104.647 92.5847 104.485 93.8174C104.472 121.555 104.519 149.293 104.464 177.03C104.472 184.423 101.435 192.467 94.5973 196.084C86.1737 200.447 75.7619 199.522 67.4399 195.338C60.2355 191.742 53.3603 187.498 46.2838 183.646C41.3661 181.101 37.966 175.782 38.0006 170.207V86.1608C37.949 80.6929 41.1825 75.4248 45.9764 72.8445C70.6133 58.9408 95.2461 45.0261 119.878 31.1164Z"/><path fill="#81CD39" d="M141.372 89.3351C152.117 88.6433 163.62 88.9255 173.289 94.2185C180.776 98.2754 184.926 106.789 185.058 115.106C184.849 116.227 183.676 116.846 182.605 116.769C179.488 116.765 176.369 116.812 173.252 116.748C171.929 116.799 171.161 115.58 170.995 114.411C170.099 110.431 167.928 106.49 164.183 104.57C158.433 101.692 151.767 101.837 145.497 101.897C140.92 102.139 135.998 102.536 132.12 105.227C129.143 107.266 128.239 111.382 129.301 114.697C130.303 117.077 133.05 117.845 135.299 118.553C148.248 121.94 161.97 121.602 174.672 126.059C179.931 127.876 185.075 131.409 186.875 136.915C189.23 144.295 188.198 153.115 182.947 159.039C178.689 163.914 172.488 166.568 166.303 168.009C158.075 169.844 149.536 169.891 141.18 169.076C133.323 168.18 125.146 166.116 119.081 160.763C113.894 156.259 111.361 149.241 111.612 142.469C111.672 141.325 112.811 140.527 113.907 140.621C117.046 140.596 120.186 140.587 123.325 140.626C124.58 140.536 125.509 141.62 125.574 142.802C126.152 146.593 127.577 150.573 130.884 152.82C137.264 156.937 145.271 156.655 152.577 156.77C158.63 156.502 165.425 156.421 170.364 152.42C172.97 150.138 173.742 146.32 173.038 143.036C172.275 140.263 169.374 138.971 166.883 138.126C154.1 134.083 140.224 135.55 127.565 130.977C122.425 129.161 117.455 125.727 115.481 120.447C112.726 112.974 113.988 103.73 119.789 98.0061C125.445 92.312 133.609 90.1192 141.372 89.3346V89.3351"/></svg>
        </g>
         
        <g transform="translate(300, 0)">
          <svg xmlns="http://www.w3.org/2000/svg" width="256" height="256" fill="none" viewBox="0 0 256 256"><rect width="256" height="256" fill="#007ACC" rx="60"/><path fill="#fff" d="M56.6112 128.849L56.5299 139.333H73.1902H89.8505L89.8505 186.673V234.012H101.635H113.419V186.673L113.419 139.333H130.079H146.739V129.052C146.739 123.363 146.618 118.609 146.455 118.487C146.333 118.325 126.056 118.243 101.472 118.284L56.7331 118.406L56.6112 128.849Z"/><path fill="#fff" d="M206.567 118.108C213.068 119.734 218.026 122.619 222.577 127.332C224.934 129.852 228.428 134.444 228.713 135.541C228.794 135.866 217.66 143.343 210.915 147.528C210.671 147.691 209.695 146.634 208.598 145.009C205.307 140.214 201.853 138.141 196.57 137.776C188.809 137.247 183.811 141.311 183.852 148.097C183.852 150.088 184.136 151.266 184.949 152.892C186.655 156.427 189.825 158.54 199.781 162.847C218.107 170.731 225.949 175.932 230.826 183.327C236.271 191.576 237.49 204.742 233.792 214.535C229.729 225.181 219.651 232.414 205.469 234.812C201.081 235.584 190.678 235.462 185.965 234.609C175.684 232.78 165.932 227.701 159.918 221.037C157.561 218.436 152.969 211.65 153.254 211.162C153.375 211 154.432 210.35 155.61 209.659C156.748 209.009 161.056 206.53 165.119 204.173L172.474 199.906L174.018 202.182C176.172 205.473 180.885 209.984 183.73 211.487C191.897 215.795 203.113 215.185 208.639 210.228C210.996 208.074 211.971 205.839 211.971 202.548C211.971 199.581 211.605 198.281 210.061 196.046C208.07 193.202 204.007 190.804 192.466 185.806C179.26 180.117 173.571 176.582 168.37 170.974C165.363 167.724 162.518 162.522 161.34 158.174C160.365 154.558 160.121 145.496 160.893 141.839C163.615 129.08 173.246 120.181 187.143 117.539C191.654 116.686 202.137 117.011 206.567 118.108Z"/></svg>
        </g>
         
        <g transform="translate(600, 0)">
          <svg xmlns="http://www.w3.org/2000/svg" width="256" height="256" fill="none" viewBox="0 0 256 256"><rect width="256" height="256" fill="#242938" rx="60"/><path fill="#fff" d="M228 182.937C225.089 184.04 221.875 184.037 218.965 182.931C216.056 181.824 213.652 179.69 212.209 176.932C203.146 163.365 193.138 150.41 183.519 137.177L179.348 131.617C167.894 146.963 156.44 161.697 145.987 176.988C144.625 179.624 142.352 181.675 139.59 182.759C136.828 183.844 133.766 183.887 130.975 182.882L173.955 125.223L133.977 73.1236C136.855 72.0845 140.003 72.0702 142.89 73.0832C145.777 74.0962 148.226 76.0744 149.824 78.6838C159.109 92.2506 169.396 105.206 179.626 118.94C189.913 105.317 200.088 92.3062 209.596 78.8506C210.965 76.2574 213.24 74.258 215.988 73.2328C218.735 72.2076 221.764 72.2281 224.497 73.2904L208.984 93.8631C202.034 103.037 195.195 112.267 187.967 121.219C187.384 121.741 186.918 122.379 186.599 123.093C186.28 123.807 186.115 124.58 186.115 125.362C186.115 126.143 186.28 126.916 186.599 127.63C186.918 128.344 187.384 128.982 187.967 129.504C201.256 147.13 214.433 164.811 228 182.937V182.937Z"/><path fill="#fff" d="M28 124.5C29.1676 118.94 29.8905 112.879 31.5029 107.208C41.122 73.0129 80.3214 58.7788 107.288 79.9632C123.079 92.3624 127.027 109.933 126.249 129.727H37.2855C35.8399 165.09 61.3611 186.441 93.9994 175.543C99.2938 173.649 104.033 170.467 107.79 166.283C111.547 162.099 114.202 157.045 115.517 151.578C117.241 146.018 120.021 145.073 125.303 146.685C124.433 153.454 122.04 159.938 118.303 165.649C114.567 171.36 109.584 176.149 103.73 179.657C94.0573 184.947 82.96 187.042 72.0247 185.644C61.0894 184.246 50.8763 179.426 42.8457 171.873C34.9011 162.94 30.0973 151.654 29.1676 139.735C29.1676 137.845 28.4448 135.954 28.0556 134.175C28.0185 130.876 28 127.651 28 124.5ZM37.3967 122.109H117.853C117.352 96.4769 101.172 78.2951 79.5986 78.1283C55.5785 77.7947 38.3976 95.5873 37.3411 121.998L37.3967 122.109Z"/></svg>
        </g>
         
        <g transform="translate(900, 0)">
          <svg xmlns="http://www.w3.org/2000/svg" width="256" height="256" fill="none" viewBox="0 0 256 256"><rect width="256" height="256" fill="#023430" rx="60"/><path fill="#10AA50" d="M171.173 107.591C160.636 61.1097 138.676 48.7357 133.074 39.9886C130.764 36.1353 128.717 32.1299 126.949 28C126.653 32.1292 126.109 34.7307 122.599 37.862C115.552 44.1454 85.6217 68.5354 83.1028 121.348C80.756 170.59 119.303 200.953 124.395 204.092C128.311 206.019 133.08 204.133 135.407 202.364C153.988 189.612 179.376 155.614 171.193 107.591"/><path fill="#B8C4C2" d="M128.545 177.871C127.575 190.059 126.88 197.141 124.416 204.106C124.416 204.106 126.033 215.709 127.169 228H131.188C132.147 219.345 133.61 210.753 135.572 202.268C130.369 199.708 128.745 188.566 128.545 177.871Z"/><path fill="#12924F" d="M135.565 202.275C130.307 199.846 128.786 188.469 128.552 177.871C129.852 160.388 130.231 142.849 129.688 125.326C129.412 116.132 129.818 40.1676 127.423 29.0461C129.062 32.8129 130.949 36.4662 133.074 39.9818C138.676 48.7358 160.643 61.1097 171.173 107.591C179.376 155.532 154.126 189.44 135.565 202.275Z"/></svg>
        </g>
         
        <g transform="translate(1200, 0)">
          <svg width="256" height="256" viewBox="0 0 256 256" fill="none" xmlns="http://www.w3.org/2000/svg">
<rect width="256" height="256" rx="60" fill="#99424F"/>
<path d="M213.353 126.495C213.353 114.45 205.073 104.317 193.956 101.422L218.854 28H95.461L120.418 101.654C109.647 104.781 101.715 114.74 101.715 126.552C101.715 135.238 106.057 142.939 112.658 147.687C110.053 151.393 107.042 154.81 103.625 158.052C97.1981 164.074 90.076 168.706 82.3747 171.775C75.4263 167.085 72.4153 158.805 75.1368 151.393C85.7332 148.151 93.4344 138.249 93.4344 126.61C93.4344 112.308 81.7957 100.727 67.5514 100.727C53.2491 100.727 41.6104 112.366 41.6104 126.668C41.6104 133.732 44.5056 140.218 49.1379 144.85C48.7326 145.661 48.3273 146.471 47.9219 147.34C44.0424 155.331 39.6417 164.364 37.9625 174.497C34.604 194.763 40.1049 211.034 53.3649 220.241C60.8345 225.394 69.0569 228 77.9161 228C93.1449 228 108.605 220.357 123.544 212.945C134.199 207.676 145.2 202.175 156.028 199.511C160.024 198.527 164.193 197.948 168.594 197.311C177.511 196.037 186.718 194.705 194.998 189.899C204.668 184.283 211.269 174.902 213.18 164.132C214.627 155.852 213.18 147.514 209.474 140.218C211.964 136.222 213.353 131.532 213.353 126.495V126.495ZM202.062 126.495C202.062 134.543 195.519 141.086 187.47 141.086C179.422 141.086 172.879 134.543 172.879 126.495C172.879 123.889 173.573 121.399 174.789 119.257C175.253 118.446 175.832 117.635 176.411 116.94C176.99 116.246 177.685 115.609 178.437 115.03L178.495 114.972C178.958 114.624 179.48 114.277 180.001 113.929C180.001 113.929 180.059 113.929 180.059 113.871C180.29 113.756 180.522 113.582 180.753 113.466C180.811 113.466 180.869 113.408 180.927 113.408C181.159 113.292 181.448 113.177 181.738 113.061C182.027 112.945 182.317 112.829 182.548 112.713C182.606 112.713 182.664 112.655 182.722 112.655C182.954 112.598 183.185 112.482 183.417 112.424C183.475 112.424 183.591 112.366 183.649 112.366C183.938 112.308 184.17 112.25 184.459 112.192H184.517L185.386 112.019C185.444 112.019 185.559 112.019 185.617 111.961C185.849 111.961 186.081 111.903 186.312 111.903H186.602C186.891 111.903 187.181 111.845 187.528 111.845H188.281C188.513 111.845 188.686 111.845 188.918 111.903H189.034C189.497 111.961 189.96 112.019 190.423 112.134C197.024 113.524 202.062 119.43 202.062 126.495V126.495ZM111.616 39.5808H202.699L181.796 101.248C180.927 101.422 180.059 101.712 179.19 102.001L157.187 57.1257L135.125 101.712C134.257 101.422 133.33 101.248 132.404 101.075L111.616 39.5808ZM153.017 121.457C151.917 116.014 149.138 111.15 145.2 107.56L157.187 83.3561L169.288 108.081C165.698 111.671 163.093 116.246 162.05 121.457H153.017ZM124.008 112.308C124.297 112.25 124.529 112.192 124.818 112.134H124.992C125.224 112.076 125.455 112.076 125.687 112.019H125.918C126.15 112.019 126.324 111.961 126.555 111.961H128.814C129.045 111.961 129.219 112.019 129.393 112.019C129.509 112.019 129.566 112.019 129.682 112.076C129.914 112.134 130.088 112.134 130.319 112.192C130.377 112.192 130.435 112.192 130.551 112.25C130.84 112.308 131.13 112.366 131.361 112.424H131.419C131.651 112.482 131.883 112.54 132.114 112.655C132.172 112.655 132.23 112.713 132.346 112.713C132.52 112.771 132.751 112.829 132.925 112.945C132.983 112.945 133.041 113.003 133.099 113.003C133.33 113.119 133.562 113.177 133.793 113.292H133.851C134.141 113.408 134.372 113.524 134.604 113.698H134.662C134.894 113.814 135.125 113.987 135.357 114.103C135.415 114.103 135.415 114.161 135.473 114.161C135.704 114.277 135.878 114.45 136.11 114.566L136.167 114.624C136.862 115.145 137.499 115.724 138.136 116.303L138.194 116.361C138.773 116.998 139.352 117.693 139.815 118.446C141.321 120.762 142.189 123.483 142.189 126.437C142.189 134.485 135.646 141.028 127.598 141.028C119.549 141.028 113.006 134.485 113.006 126.437C112.948 119.662 117.638 113.929 124.008 112.308V112.308ZM67.0302 111.903C75.0789 111.903 81.622 118.446 81.622 126.495C81.622 134.543 75.0789 141.086 67.0302 141.086C58.9816 141.086 52.4384 134.543 52.4384 126.495C52.4384 118.446 58.9816 111.903 67.0302 111.903ZM201.715 162.105C200.441 169.517 195.866 176.002 189.149 179.882C182.838 183.53 175.079 184.688 166.914 185.846C162.456 186.483 157.766 187.178 153.249 188.278C141.205 191.231 129.624 197.021 118.391 202.58C104.031 209.702 90.4813 216.419 77.9161 216.419C71.373 216.419 65.5247 214.566 59.9659 210.687C47.2271 201.885 47.864 185.383 49.3695 176.35C50.7592 167.896 54.6388 159.963 58.3446 152.378C58.5763 151.914 58.75 151.509 58.9816 151.046C60.2555 151.509 61.5873 151.856 62.977 152.088C60.7766 164.364 67.0302 177.045 79.19 183.298L81.3904 184.456L83.7644 183.588C93.8976 179.998 103.278 174.149 111.558 166.332C116.249 161.932 120.244 157.184 123.602 152.03C124.934 152.262 126.266 152.32 127.598 152.32C139.642 152.32 149.775 144.039 152.67 132.922H162.398C165.293 144.097 175.426 152.32 187.47 152.32C192.276 152.32 196.735 150.988 200.557 148.73C202.062 153.072 202.525 157.589 201.715 162.105V162.105Z" fill="white"/>
</svg>

        </g>
        
  </svg>
  