
  <svg width="160.5" height="48" viewBox="0 0 856 256" fill="none" xmlns="http://www.w3.org/2000/svg" xmlns:xlink="http://www.w3.org/1999/xlink" version="1.1">
    
        <g transform="translate(0, 0)">
          <svg xmlns="http://www.w3.org/2000/svg" width="256" height="256" fill="none" viewBox="0 0 256 256"><rect width="256" height="256" fill="#242938" rx="60"/><path fill="#00D8FF" d="M128.001 146.951C138.305 146.951 146.657 138.598 146.657 128.295C146.657 117.992 138.305 109.639 128.001 109.639C117.698 109.639 109.345 117.992 109.345 128.295C109.345 138.598 117.698 146.951 128.001 146.951Z"/><path fill-rule="evenodd" stroke="#00D8FF" stroke-width="8.911" d="M128.002 90.3633C153.05 90.3633 176.319 93.9575 193.864 99.9976C215.003 107.275 228 118.306 228 128.295C228 138.704 214.226 150.423 191.525 157.944C174.363 163.63 151.779 166.598 128.002 166.598C103.624 166.598 80.5389 163.812 63.1834 157.881C41.2255 150.376 28 138.506 28 128.295C28 118.387 40.4096 107.441 61.2515 100.175C78.8617 94.0353 102.705 90.3633 127.998 90.3633H128.002Z" clip-rule="evenodd"/><path fill-rule="evenodd" stroke="#00D8FF" stroke-width="8.911" d="M94.9811 109.438C107.495 87.7402 122.232 69.3783 136.23 57.1971C153.094 42.5206 169.144 36.7728 177.796 41.7623C186.813 46.9623 190.084 64.7496 185.259 88.1712C181.614 105.879 172.9 126.925 161.021 147.523C148.842 168.641 134.897 187.247 121.09 199.315C103.619 214.587 86.7284 220.114 77.8833 215.013C69.3003 210.067 66.0181 193.846 70.1356 172.161C73.6145 153.838 82.3451 131.349 94.977 109.438L94.9811 109.438Z" clip-rule="evenodd"/><path fill-rule="evenodd" stroke="#00D8FF" stroke-width="8.911" d="M95.0123 147.578C82.4633 125.904 73.9194 103.962 70.3531 85.7517C66.0602 63.8109 69.0954 47.0355 77.7401 42.0315C86.7485 36.8163 103.792 42.866 121.674 58.7437C135.194 70.7479 149.077 88.8052 160.99 109.383C173.204 130.481 182.358 151.856 185.919 169.844C190.425 192.608 186.778 210.001 177.941 215.116C169.367 220.08 153.676 214.825 136.945 200.427C122.809 188.263 107.685 169.468 95.0123 147.578Z" clip-rule="evenodd"/></svg>
        </g>
         
        <g transform="translate(300, 0)">
          <svg width="256" height="256" viewBox="0 0 256 256" fill="none" xmlns="http://www.w3.org/2000/svg">
<rect width="256" height="256" rx="60" fill="#242938"/>
<path d="M128.001 30C72.7791 30 28 74.7708 28 130.001C28 174.184 56.6533 211.668 96.3867 224.891C101.384 225.817 103.219 222.722 103.219 220.081C103.219 217.696 103.126 209.819 103.083 201.463C75.2631 207.512 69.3927 189.664 69.3927 189.664C64.8437 178.105 58.2894 175.032 58.2894 175.032C49.2163 168.825 58.9733 168.953 58.9733 168.953C69.0151 169.658 74.3026 179.258 74.3026 179.258C83.2217 194.546 97.6965 190.126 103.403 187.571C104.301 181.107 106.892 176.696 109.752 174.199C87.5405 171.67 64.1913 163.095 64.1913 124.778C64.1913 113.86 68.0977 104.939 74.4947 97.9362C73.4564 95.4175 70.0335 85.2465 75.4635 71.4722C75.4635 71.4722 83.8609 68.7845 102.971 81.7226C110.948 79.5069 119.502 78.3958 128.001 78.3577C136.499 78.3958 145.061 79.5069 153.052 81.7226C172.139 68.7845 180.525 71.4722 180.525 71.4722C185.968 85.2465 182.544 95.4175 181.505 97.9362C187.917 104.939 191.797 113.86 191.797 124.778C191.797 163.187 168.403 171.644 146.135 174.119C149.722 177.223 152.918 183.308 152.918 192.638C152.918 206.018 152.802 216.787 152.802 220.081C152.802 222.742 154.602 225.86 159.671 224.878C199.383 211.64 228 174.169 228 130.001C228 74.7708 183.227 30 128.001 30ZM65.4536 172.453C65.2333 172.95 64.4517 173.099 63.7396 172.758C63.0143 172.432 62.6069 171.754 62.8421 171.256C63.0574 170.744 63.8406 170.602 64.5643 170.945C65.2913 171.271 65.7053 171.955 65.4536 172.453ZM70.3725 176.842C69.8956 177.285 68.9633 177.079 68.3307 176.38C67.6766 175.683 67.554 174.751 68.0376 174.302C68.5294 173.86 69.4336 174.067 70.0893 174.764C70.7434 175.47 70.8709 176.395 70.3725 176.842ZM73.7471 182.458C73.1344 182.884 72.1325 182.485 71.5132 181.595C70.9004 180.706 70.9004 179.64 71.5264 179.212C72.1474 178.785 73.1344 179.169 73.762 180.052C74.373 180.956 74.373 182.023 73.7471 182.458ZM79.4542 188.962C78.9061 189.566 77.7386 189.404 76.8841 188.579C76.0098 187.773 75.7663 186.629 76.3161 186.024C76.8709 185.418 78.045 185.589 78.9061 186.407C79.7738 187.211 80.0387 188.364 79.4542 188.962ZM86.8301 191.157C86.5883 191.941 85.4639 192.297 84.3312 191.964C83.2002 191.621 82.46 190.704 82.6885 189.912C82.9237 189.124 84.053 188.753 85.194 189.109C86.3234 189.45 87.0652 190.361 86.8301 191.157ZM95.2242 192.089C95.2523 192.913 94.2919 193.597 93.1029 193.612C91.9073 193.639 90.9402 192.971 90.9269 192.16C90.9269 191.327 91.8659 190.65 93.0615 190.63C94.2505 190.607 95.2242 191.269 95.2242 192.089ZM103.47 191.773C103.613 192.577 102.787 193.404 101.606 193.624C100.445 193.836 99.3702 193.339 99.2229 192.541C99.0788 191.716 99.92 190.89 101.079 190.676C102.262 190.471 103.32 190.955 103.47 191.773Z" fill="white"/>
</svg>

        </g>
         
        <g transform="translate(600, 0)">
          <svg width="256" height="256" viewBox="0 0 256 256" fill="none" xmlns="http://www.w3.org/2000/svg">
<rect width="256" height="256" rx="60" fill="#242938"/>
<path d="M172.787 97.4052L172.714 97.3739C172.673 97.3583 172.631 97.3426 172.594 97.3061C172.534 97.2418 172.49 97.1647 172.465 97.0806C172.44 96.9965 172.434 96.9077 172.448 96.821L176.48 72.1699L195.389 91.0834L175.724 99.4499C175.669 99.4719 175.611 99.4826 175.552 99.4812H175.474C175.448 99.4656 175.421 99.4447 175.369 99.3925C174.637 98.5777 173.762 97.9041 172.787 97.4052V97.4052ZM200.213 95.903L220.431 116.12C224.63 120.325 226.732 122.421 227.499 124.852C227.613 125.212 227.707 125.572 227.78 125.942L179.464 105.48C179.438 105.469 179.412 105.459 179.386 105.448C179.193 105.37 178.968 105.281 178.968 105.083C178.968 104.885 179.198 104.791 179.391 104.713L179.453 104.687L200.213 95.903V95.903ZM226.956 132.431C225.913 134.392 223.879 136.427 220.436 139.874L197.642 162.663L168.161 156.524L168.004 156.493C167.743 156.451 167.467 156.404 167.467 156.169C167.355 154.953 166.994 153.773 166.406 152.702C165.818 151.632 165.016 150.694 164.05 149.947C163.93 149.827 163.962 149.639 163.998 149.467C163.998 149.441 163.998 149.415 164.009 149.394L169.553 115.354L169.574 115.239C169.606 114.978 169.652 114.676 169.887 114.676C171.075 114.528 172.222 114.145 173.261 113.549C174.3 112.954 175.21 112.158 175.938 111.207C175.985 111.155 176.016 111.097 176.079 111.066C176.246 110.988 176.444 111.066 176.616 111.139L226.951 132.431H226.956ZM192.4 167.905L154.917 205.388L161.333 165.955L161.343 165.902C161.349 165.85 161.359 165.798 161.375 165.751C161.427 165.626 161.562 165.574 161.693 165.522L161.755 165.496C163.16 164.896 164.403 163.972 165.381 162.799C165.506 162.653 165.657 162.512 165.85 162.486C165.9 162.478 165.951 162.478 166.001 162.486L192.394 167.911L192.4 167.905ZM146.983 213.322L142.758 217.547L96.0487 150.04C96.0318 150.016 96.0144 149.991 95.9965 149.967C95.9235 149.868 95.8453 149.769 95.8609 149.654C95.8661 149.571 95.9183 149.498 95.9757 149.435L96.0278 149.368C96.1687 149.159 96.2886 148.95 96.419 148.726L96.5234 148.543L96.539 148.528C96.612 148.403 96.6798 148.283 96.805 148.215C96.9146 148.163 97.0658 148.184 97.1858 148.21L148.934 158.882C149.079 158.904 149.215 158.963 149.331 159.054C149.399 159.122 149.414 159.195 149.43 159.278C149.791 160.644 150.463 161.908 151.393 162.971C152.323 164.034 153.486 164.868 154.792 165.407C154.938 165.48 154.875 165.642 154.808 165.814C154.774 165.889 154.748 165.968 154.729 166.049C154.077 170.013 148.486 204.115 146.983 213.322ZM138.158 222.142C135.044 225.225 133.208 226.857 131.132 227.515C129.085 228.162 126.888 228.162 124.841 227.515C122.411 226.743 120.309 224.646 116.11 220.442L69.2016 173.534L81.4542 154.531C81.5115 154.438 81.5689 154.354 81.6628 154.286C81.7932 154.192 81.981 154.234 82.1375 154.286C84.9498 155.135 87.9692 154.982 90.6814 153.853C90.8222 153.801 90.963 153.765 91.0726 153.864C91.1273 153.914 91.1763 153.97 91.2186 154.031L138.158 222.147V222.142ZM64.6793 169.011L53.9186 158.251L75.1688 149.185C75.2231 149.161 75.2817 149.149 75.3409 149.149C75.5183 149.149 75.6226 149.326 75.7165 149.488C75.9301 149.816 76.1563 150.136 76.3946 150.447L76.4624 150.531C76.525 150.619 76.4833 150.708 76.4207 150.792L64.6845 169.011H64.6793ZM49.1563 153.488L35.5424 139.874C33.2265 137.558 31.5469 135.879 30.3785 134.434L71.7732 143.02C71.8252 143.029 71.8773 143.038 71.9296 143.046C72.1852 143.087 72.4669 143.134 72.4669 143.374C72.4669 143.635 72.1591 143.755 71.8983 143.854L71.7784 143.906L49.1563 153.488ZM28 127.434C28.0472 126.557 28.2049 125.69 28.4694 124.852C29.2414 122.421 31.3383 120.325 35.5424 116.12L52.9641 98.6988C60.9855 110.34 69.0287 121.967 77.0935 133.579C77.2344 133.766 77.3908 133.975 77.2292 134.131C76.4676 134.971 75.7061 135.889 75.1688 136.886C75.1105 137.014 75.0208 137.125 74.908 137.209C74.8402 137.251 74.7672 137.235 74.6889 137.219H74.6785L28 127.429V127.434ZM57.6272 94.0356L81.0525 70.6103C83.2537 71.5753 91.2656 74.9605 98.4324 77.9858C103.857 80.2809 108.802 82.3673 110.356 83.0454C110.513 83.108 110.654 83.1706 110.721 83.3271C110.763 83.421 110.742 83.5409 110.721 83.64C110.351 85.331 110.406 87.0875 110.882 88.7518C111.358 90.4162 112.24 91.9361 113.449 93.175C113.606 93.3315 113.449 93.5558 113.314 93.7488L113.241 93.8583L89.4556 130.699C89.393 130.804 89.3356 130.892 89.2313 130.96C89.1061 131.038 88.9288 131.002 88.7827 130.965C87.8576 130.723 86.9066 130.593 85.9504 130.579C85.095 130.579 84.1665 130.736 83.2276 130.908H83.2224C83.1181 130.924 83.0242 130.944 82.9407 130.882C82.8486 130.807 82.7693 130.717 82.706 130.616L57.6272 94.0356V94.0356ZM85.7835 65.8794L116.11 35.5532C120.309 31.3543 122.411 29.2522 124.841 28.4854C126.888 27.8382 129.085 27.8382 131.132 28.4854C133.563 29.2522 135.665 31.3543 139.864 35.5532L146.436 42.1254L124.867 75.5291C124.814 75.6263 124.741 75.7115 124.654 75.7794C124.523 75.8681 124.341 75.8316 124.184 75.7794C122.484 75.2634 120.683 75.1694 118.938 75.5057C117.193 75.842 115.556 76.5983 114.169 77.7094C114.028 77.8554 113.82 77.772 113.642 77.6937C110.826 76.468 88.9183 67.2095 85.7835 65.8794V65.8794ZM151.016 46.7051L170.93 66.62L166.132 96.3411V96.4194C166.127 96.4871 166.113 96.5539 166.09 96.6176C166.038 96.7219 165.933 96.7428 165.829 96.7741C164.803 97.0849 163.837 97.5662 162.971 98.1981C162.933 98.2246 162.899 98.2543 162.866 98.2867C162.809 98.3493 162.752 98.4067 162.658 98.4171C162.581 98.4195 162.505 98.4071 162.433 98.3806L132.086 85.4865L132.029 85.4604C131.836 85.3822 131.607 85.2883 131.607 85.0901C131.428 83.399 130.876 81.7687 129.99 80.3174C129.844 80.0775 129.682 79.8271 129.807 79.5819L151.016 46.7051V46.7051ZM130.506 91.5945L158.954 103.644C159.111 103.717 159.283 103.784 159.351 103.946C159.378 104.043 159.378 104.146 159.351 104.243C159.267 104.661 159.194 105.135 159.194 105.615V106.413C159.194 106.612 158.991 106.695 158.803 106.773L158.746 106.794C154.239 108.719 95.4749 133.777 95.3862 133.777C95.2976 133.777 95.2037 133.777 95.115 133.688C94.9585 133.532 95.115 133.313 95.2558 133.114C95.2807 133.08 95.3051 133.045 95.3289 133.01L118.707 96.8106L118.749 96.748C118.885 96.5289 119.041 96.2838 119.291 96.2838L119.526 96.3203C120.058 96.3933 120.528 96.4611 121.002 96.4611C124.549 96.4611 127.835 94.7346 129.817 91.7823C129.865 91.7035 129.925 91.633 129.995 91.5737C130.136 91.4693 130.344 91.5215 130.506 91.5945V91.5945ZM97.9265 139.504L161.98 112.188C161.98 112.188 162.074 112.188 162.162 112.276C162.512 112.626 162.809 112.86 163.096 113.079L163.237 113.168C163.367 113.241 163.498 113.325 163.508 113.46C163.508 113.512 163.508 113.544 163.498 113.591L158.01 147.297L157.989 147.432C157.953 147.693 157.916 147.991 157.671 147.991C156.208 148.089 154.791 148.543 153.544 149.313C152.296 150.083 151.254 151.145 150.51 152.409L150.483 152.45C150.41 152.57 150.343 152.685 150.223 152.748C150.113 152.8 149.972 152.779 149.858 152.753L98.7767 142.216C98.7245 142.206 97.9838 139.509 97.9265 139.504V139.504Z" fill="url(#paint0_radial_267_110)"/>
<defs>
<radialGradient id="paint0_radial_267_110" cx="0" cy="0" r="1" gradientUnits="userSpaceOnUse" gradientTransform="translate(21.2925 125.178) rotate(90) scale(199.78 230.653)">
<stop stop-color="#20C6B7"/>
<stop offset="1" stop-color="#4D9ABF"/>
</radialGradient>
</defs>
</svg>

        </g>
        
  </svg>
  