<svg data-v-423bf9ae="" xmlns="http://www.w3.org/2000/svg" viewBox="0 0 394.5454527392533 181" class="iconAboveSlogan"><!----><!----><!----><g data-v-423bf9ae="" id="bf682233-63fc-45e3-9963-6ea6527f4aaf" fill="black" transform="matrix(5.681817956043021,0,0,5.681817956043021,-2.6136337866386157,102.37500084778576)"><path d="M0.48 10.50L3.79 10.50L3.79 10.09C2.88 10.02 2.55 9.98 2.46 9.39C2.39 8.93 2.37 8.40 2.37 7.66L2.37 2.10L2.39 2.10L6.01 10.33L6.38 10.33L10.04 2.10L10.08 2.10L10.08 9.20C10.08 9.98 10.05 10.01 8.82 10.09L8.82 10.50L12.73 10.50L12.73 10.09C11.51 10.01 11.47 9.98 11.47 9.20L11.47 2.11C11.47 1.33 11.51 1.30 12.73 1.22L12.73 0.81L9.91 0.81C9.44 2.06 8.86 3.29 8.30 4.52L6.62 8.27L6.59 8.27L4.94 4.54C4.40 3.29 3.81 2.06 3.30 0.81L0.46 0.81L0.46 1.22C1.69 1.30 1.72 1.33 1.72 2.11L1.72 7.66C1.72 8.40 1.69 8.93 1.62 9.39C1.54 9.98 1.20 10.04 0.48 10.09ZM16.86 10.50L20.55 10.50L20.55 10.09C19.96 10.04 19.64 10.04 19.54 9.87C19.50 9.81 19.50 9.80 19.50 9.20L19.50 5.94L20.47 5.94C21.31 5.94 21.95 6.20 22.19 7.15C22.29 7.55 22.44 8.65 22.60 9.30C22.81 10.19 23.34 10.50 24.16 10.50L25.30 10.50L25.30 10.09C24.21 9.98 23.98 9.20 23.86 8.25C23.69 7 23.44 6.06 21.95 5.70L21.95 5.67C23.27 5.42 24.23 4.54 24.23 3.21C24.23 1.86 23.39 0.81 20.94 0.81L16.86 0.81L16.86 1.22C18.09 1.30 18.12 1.33 18.12 2.11L18.12 9.20C18.12 9.98 18.09 10.01 16.86 10.09ZM19.50 5.45L19.50 2.00C19.50 1.41 19.60 1.30 20.52 1.30C21.56 1.30 22.74 1.68 22.74 3.33C22.74 4.80 21.97 5.45 20.61 5.45ZM26.07 8.68C26.07 9.73 26.77 10.67 28.08 10.67C28.90 10.67 29.72 10.12 30.17 9.83C30.37 10.35 30.59 10.67 31.08 10.67C31.60 10.67 32.20 10.51 32.73 10.25L32.65 9.91C32.45 9.95 32.14 9.98 31.93 9.93C31.68 9.87 31.44 9.60 31.44 8.72L31.44 5.33C31.44 4.52 31.26 3.47 29.15 3.47C27.57 3.47 26.32 4.30 26.32 5.07C26.32 5.52 26.84 5.73 27.10 5.73C27.40 5.73 27.48 5.57 27.55 5.33C27.86 4.30 28.43 3.96 28.99 3.96C29.54 3.96 30.18 4.24 30.18 5.36L30.18 5.95C29.83 6.31 28.48 6.66 27.37 7.01C26.36 7.32 26.07 8.02 26.07 8.68ZM27.48 8.48C27.48 7.83 27.79 7.49 28.57 7.20C29.13 6.99 29.88 6.72 30.18 6.52L30.18 8.50C30.18 9.63 29.32 9.93 28.77 9.93C27.90 9.93 27.48 9.31 27.48 8.48ZM33.00 10.50L36.40 10.50L36.40 10.09C35.43 10.02 35.35 9.97 35.35 9.28L35.35 6.01C35.35 5.66 35.36 5.46 35.48 5.25C35.77 4.69 36.41 4.23 37.16 4.23C38.11 4.23 38.63 4.76 38.63 5.98L38.63 9.28C38.63 9.97 38.56 10.02 37.58 10.09L37.58 10.50L40.99 10.50L40.99 10.09C40.03 10.02 39.94 9.97 39.94 9.28L39.94 5.70C39.94 4.28 39.17 3.47 37.87 3.47C36.85 3.47 36.22 3.95 35.34 4.54L35.34 0.20L35.24 0.11L33.05 0.46L33.05 0.81L33.59 0.88C33.95 0.94 34.03 1.01 34.03 1.51L34.03 9.28C34.03 9.97 33.98 10.02 33.00 10.09ZM41.65 10.50L45.07 10.50L45.07 10.09C44.07 10.02 44.02 10.00 44.02 9.28L44.02 6.01C44.02 5.66 44.03 5.46 44.13 5.26C44.39 4.70 45.01 4.23 45.78 4.23C46.98 4.23 47.12 5.11 47.12 5.98L47.12 9.28C47.12 10.00 47.08 10.02 46.07 10.09L46.07 10.50L49.49 10.50L49.49 10.09C48.50 10.02 48.44 10.00 48.44 9.28L48.44 6.01C48.44 5.66 48.45 5.46 48.54 5.24C48.75 4.68 49.35 4.23 50.13 4.23C51.02 4.23 51.55 4.73 51.55 5.98L51.55 9.28C51.55 10.00 51.51 10.02 50.50 10.09L50.50 10.50L53.91 10.50L53.91 10.09C52.92 10.02 52.86 10.00 52.86 9.28L52.86 5.70C52.86 4.28 52.11 3.47 50.78 3.47C49.63 3.47 48.80 4.24 48.31 4.55C47.98 3.89 47.45 3.47 46.47 3.47C45.39 3.47 44.51 4.17 44.02 4.54L43.89 3.47L41.72 3.82L41.72 4.17L42.25 4.24C42.62 4.30 42.70 4.37 42.70 4.87L42.70 9.28C42.70 10.00 42.66 10.02 41.65 10.09ZM54.81 8.68C54.81 9.73 55.51 10.67 56.83 10.67C57.64 10.67 58.46 10.12 58.91 9.83C59.11 10.35 59.33 10.67 59.82 10.67C60.34 10.67 60.94 10.51 61.47 10.25L61.39 9.91C61.19 9.95 60.89 9.98 60.68 9.93C60.42 9.87 60.19 9.60 60.19 8.72L60.19 5.33C60.19 4.52 60.00 3.47 57.89 3.47C56.31 3.47 55.06 4.30 55.06 5.07C55.06 5.52 55.58 5.73 55.85 5.73C56.14 5.73 56.22 5.57 56.29 5.33C56.60 4.30 57.18 3.96 57.74 3.96C58.28 3.96 58.93 4.24 58.93 5.36L58.93 5.95C58.58 6.31 57.22 6.66 56.11 7.01C55.10 7.32 54.81 8.02 54.81 8.68ZM56.22 8.48C56.22 7.83 56.53 7.49 57.32 7.20C57.88 6.99 58.62 6.72 58.93 6.52L58.93 8.50C58.93 9.63 58.06 9.93 57.51 9.93C56.64 9.93 56.22 9.31 56.22 8.48ZM61.89 10.50L65.31 10.50L65.31 10.09C64.32 10.02 64.26 10.00 64.26 9.28L64.26 6.01C64.26 5.66 64.29 5.46 64.40 5.24C64.69 4.69 65.32 4.23 66.07 4.23C67.02 4.23 67.54 4.76 67.54 5.98L67.54 9.28C67.54 10.00 67.49 10.02 66.49 10.09L66.49 10.50L69.90 10.50L69.90 10.09C68.91 10.02 68.85 10.00 68.85 9.28L68.85 5.70C68.85 4.28 68.08 3.47 66.79 3.47C65.76 3.47 65.11 3.98 64.25 4.54L64.05 3.47L61.96 3.82L61.96 4.17L62.50 4.24C62.86 4.30 62.94 4.37 62.94 4.87L62.94 9.28C62.94 10.00 62.90 10.02 61.89 10.09Z"></path></g><!----><g data-v-423bf9ae="" id="5a564630-4397-4aa6-b55a-6b7864bfc1bd" transform="matrix(1.20643446441337,0,0,1.20643446441337,137.6782767793315,-14.621717855546791)" stroke="none" fill="black"><path d="M5 20.1l7.4-7.4 26.1 26.1 7.5 7.4-7.5 7.4-26.1 26.1L5 72.3l26.1-26.1L5 20.1zm90 67.2V75.7H48.8v11.6H95z"></path></g><!----><g data-v-423bf9ae="" id="8729a26c-3ba0-4bd4-9804-f94464de0d64" fill="black" transform="matrix(0.5883469179291594,0,0,0.5883469179291594,50.25951481760521,203.88553962289208)"><path d="M8.43 12.21C8.40 12.18 8.36 12.15 8.32 12.15C8.29 12.15 8.27 12.15 8.25 12.17C8.23 12.18 8.20 12.21 8.18 12.22C7.98 12.40 7.77 12.56 7.57 12.70C7.38 12.84 7.17 12.94 6.93 13.03C6.69 13.13 6.44 13.20 6.16 13.24C5.88 13.29 5.57 13.31 5.22 13.31C4.66 13.31 4.12 13.22 3.64 13.01C3.15 12.81 2.74 12.52 2.39 12.14C2.04 11.76 1.75 11.28 1.55 10.74C1.36 10.19 1.26 9.56 1.26 8.86C1.26 8.18 1.36 7.56 1.55 7.01C1.76 6.47 2.04 6.01 2.41 5.61C2.77 5.24 3.21 4.94 3.71 4.73C4.21 4.52 4.76 4.42 5.36 4.42C6.26 4.42 7.08 4.56 7.81 4.89C7.85 5.78 7.90 6.30 7.90 6.41C7.91 6.64 7.99 6.75 8.19 6.75L8.53 6.75L8.53 4.51C7.35 4.03 6.29 3.81 5.36 3.81C4.65 3.81 4.00 3.92 3.40 4.17C2.81 4.42 2.28 4.76 1.86 5.21C1.43 5.66 1.11 6.19 0.87 6.80C0.63 7.42 0.52 8.11 0.52 8.86C0.52 9.63 0.64 10.32 0.87 10.95C1.09 11.58 1.41 12.10 1.82 12.54C2.23 12.99 2.72 13.33 3.29 13.57C3.86 13.80 4.48 13.93 5.17 13.93C5.57 13.93 5.95 13.90 6.30 13.83C6.64 13.76 6.96 13.66 7.25 13.54C7.53 13.41 7.80 13.26 8.04 13.09C8.27 12.91 8.50 12.73 8.71 12.50ZM24.71 13.29L24.61 13.29L24.43 13.29C24.35 13.29 24.26 13.27 24.18 13.27L21.21 9.53C21.13 9.42 21.01 9.32 20.90 9.25C21.34 9.21 21.73 9.11 22.08 8.96C22.43 8.81 22.71 8.61 22.96 8.37C23.20 8.13 23.39 7.85 23.52 7.55C23.65 7.24 23.72 6.89 23.72 6.51C23.72 5.66 23.44 5.03 22.88 4.58C22.32 4.14 21.46 3.92 20.31 3.92L17.91 3.92L16.73 3.92L16.73 4.19C16.73 4.34 16.81 4.42 17.00 4.44L17.14 4.44C17.21 4.44 17.30 4.45 17.44 4.45C17.58 4.45 17.74 4.47 17.91 4.47L17.91 13.26C17.74 13.26 17.58 13.27 17.44 13.27C17.30 13.27 17.21 13.29 17.14 13.29L17.00 13.29C16.81 13.30 16.72 13.38 16.72 13.54L16.72 13.82L17.91 13.82L18.62 13.82L19.80 13.82L19.80 13.54C19.80 13.38 19.70 13.30 19.52 13.29L19.38 13.29C19.31 13.29 19.21 13.27 19.07 13.27C18.93 13.27 18.79 13.26 18.62 13.26L18.62 9.34L19.80 9.34C19.99 9.34 20.13 9.35 20.22 9.39C20.30 9.44 20.38 9.52 20.47 9.62L23.65 13.64C23.70 13.71 23.74 13.75 23.80 13.78C23.86 13.80 23.93 13.82 24.00 13.82L24.07 13.82L24.61 13.82L24.98 13.82L24.98 13.54C24.98 13.38 24.89 13.30 24.71 13.29ZM20.22 8.81L18.62 8.81L18.62 4.48L20.31 4.48C21.20 4.48 21.87 4.66 22.33 5.00C22.79 5.33 23.02 5.87 23.02 6.57C23.02 6.92 22.96 7.21 22.83 7.49C22.71 7.77 22.51 7.99 22.27 8.19C22.04 8.39 21.74 8.55 21.39 8.65C21.04 8.75 20.65 8.81 20.22 8.81ZM34.37 3.92L33.18 3.92L33.18 4.19C33.18 4.34 33.28 4.42 33.46 4.44L33.60 4.44C33.67 4.44 33.77 4.45 33.91 4.45C34.05 4.45 34.20 4.47 34.37 4.47L34.37 13.26C34.20 13.26 34.05 13.27 33.91 13.27C33.77 13.27 33.67 13.29 33.60 13.29L33.46 13.29C33.28 13.30 33.19 13.38 33.19 13.54L33.19 13.82L34.37 13.82L40.31 13.82L40.31 13.22L40.31 11.76L39.96 11.76C39.76 11.76 39.68 11.89 39.66 12.11C39.66 12.14 39.65 12.19 39.65 12.29C39.65 12.39 39.65 12.53 39.63 12.74C39.62 12.95 39.61 13.09 39.61 13.22L35.08 13.22L35.08 9.09L39.03 9.09L39.03 8.51L35.08 8.51L35.08 4.51L39.61 4.51C39.63 5.12 39.66 5.50 39.66 5.63C39.68 5.85 39.76 5.96 39.96 5.96L40.31 5.96L40.31 4.51L40.31 3.92ZM58.18 13.22L57.72 13.17L53.94 3.91L53.23 3.91L49.43 13.17L48.99 13.22C48.80 13.23 48.72 13.33 48.72 13.50L48.72 13.82L49.17 13.82L49.46 13.82L49.71 13.82L49.81 13.82L51.13 13.82L51.13 13.50C51.13 13.31 51.02 13.23 50.81 13.22C50.79 13.22 50.76 13.20 50.72 13.20C50.68 13.20 50.62 13.19 50.53 13.19C50.43 13.19 50.30 13.19 50.16 13.17L51.14 10.75L51.21 10.57L55.94 10.57L56.01 10.75L56.99 13.17C56.85 13.19 56.74 13.19 56.64 13.19C56.55 13.19 56.48 13.20 56.43 13.20C56.39 13.20 56.36 13.22 56.35 13.22C56.14 13.23 56.03 13.31 56.03 13.50L56.03 13.82L57.34 13.82L57.44 13.82L57.71 13.82L57.99 13.82L58.45 13.82L58.45 13.50C58.45 13.33 58.37 13.23 58.18 13.22ZM53.38 5.22C53.41 5.14 53.45 5.04 53.48 4.94C53.51 4.84 53.55 4.75 53.58 4.63C53.61 4.75 53.65 4.84 53.68 4.94C53.70 5.04 53.75 5.12 53.77 5.21L55.73 10.04L51.44 10.04ZM73.11 3.92L72.91 3.92L65.62 3.92L65.41 3.92L65.31 3.92L65.31 5.96L65.66 5.96C65.86 5.96 65.94 5.85 65.95 5.63C65.95 5.53 65.98 5.17 66.01 4.52L68.91 4.52L68.91 13.26C68.74 13.26 68.60 13.27 68.46 13.27C68.32 13.27 68.21 13.29 68.14 13.29L68.01 13.29C67.83 13.30 67.73 13.38 67.73 13.54L67.73 13.82L68.91 13.82L69.62 13.82L70.81 13.82L70.81 13.54C70.81 13.38 70.71 13.30 70.53 13.29L70.39 13.29C70.32 13.29 70.22 13.27 70.08 13.27C69.94 13.27 69.79 13.26 69.62 13.26L69.62 4.52L72.51 4.52C72.55 5.24 72.56 5.60 72.56 5.63C72.58 5.85 72.67 5.96 72.87 5.96L73.21 5.96L73.21 3.92ZM84.13 4.44C84.31 4.42 84.39 4.34 84.39 4.19L84.39 3.91L83.22 3.91L82.50 3.91L81.31 3.91L81.31 4.19C81.31 4.34 81.41 4.42 81.59 4.44L81.73 4.44C81.80 4.44 81.90 4.45 82.04 4.45C82.18 4.45 82.33 4.47 82.50 4.47L82.50 13.26C82.33 13.26 82.18 13.27 82.04 13.27C81.90 13.27 81.80 13.29 81.73 13.29L81.59 13.29C81.41 13.30 81.31 13.38 81.31 13.54L81.31 13.82L82.50 13.82L83.22 13.82L84.39 13.82L84.39 13.54C84.39 13.38 84.31 13.30 84.13 13.29L83.99 13.29C83.92 13.29 83.82 13.27 83.68 13.27C83.54 13.27 83.38 13.26 83.22 13.26L83.22 4.47C83.38 4.47 83.54 4.45 83.68 4.45C83.82 4.45 83.92 4.44 83.99 4.44ZM101.57 3.92L100.94 3.92L99.72 3.92L99.72 4.19C99.72 4.34 99.82 4.42 100.00 4.44L100.14 4.44C100.21 4.44 100.32 4.45 100.46 4.45C100.60 4.45 100.77 4.47 100.94 4.47L100.94 12.22C100.94 12.35 100.94 12.49 100.95 12.63L94.54 4.05C94.50 3.99 94.47 3.95 94.43 3.93C94.39 3.92 94.35 3.91 94.28 3.91L93.93 3.91L92.74 3.91L92.74 4.19C92.74 4.34 92.83 4.42 93.02 4.44L93.16 4.44C93.23 4.44 93.32 4.45 93.46 4.45C93.60 4.45 93.76 4.47 93.93 4.47L93.93 13.26C93.76 13.26 93.60 13.27 93.46 13.27C93.32 13.27 93.23 13.29 93.16 13.29L93.02 13.29C92.83 13.30 92.74 13.38 92.74 13.54L92.74 13.82L93.93 13.82L94.54 13.82L95.76 13.82L95.76 13.54C95.76 13.38 95.66 13.30 95.48 13.29L95.34 13.29C95.27 13.29 95.14 13.27 95.00 13.27C94.86 13.27 94.71 13.26 94.54 13.26L94.54 5.49C94.54 5.36 94.54 5.22 94.53 5.08L100.97 13.68C101.04 13.78 101.11 13.82 101.22 13.82L101.57 13.82L101.57 4.47C101.74 4.47 101.88 4.45 102.02 4.45C102.16 4.45 102.27 4.44 102.34 4.44L102.47 4.44C102.65 4.42 102.75 4.34 102.75 4.19L102.75 3.92ZM116.42 9.32L116.42 9.72C116.42 9.76 116.45 9.80 116.48 9.83C116.51 9.86 116.55 9.87 116.61 9.87L118.51 9.87L118.51 12.54C118.29 12.67 118.06 12.78 117.85 12.88C117.64 12.98 117.40 13.08 117.17 13.15C116.93 13.22 116.66 13.27 116.38 13.30C116.10 13.33 115.79 13.34 115.46 13.34C114.84 13.34 114.28 13.24 113.78 13.03C113.27 12.82 112.84 12.53 112.48 12.15C112.11 11.77 111.83 11.30 111.64 10.74C111.44 10.18 111.33 9.56 111.33 8.86C111.33 8.18 111.44 7.56 111.64 7.01C111.83 6.47 112.11 5.99 112.48 5.61C112.84 5.24 113.29 4.94 113.81 4.73C114.32 4.52 114.90 4.42 115.54 4.42C116.72 4.42 117.66 4.58 118.34 4.90C118.38 5.81 118.41 6.31 118.41 6.41C118.43 6.64 118.52 6.75 118.72 6.75L119.06 6.75L119.06 4.51C118.62 4.31 118.06 4.14 117.36 4.00C116.66 3.86 116.07 3.81 115.57 3.81C114.81 3.81 114.13 3.92 113.51 4.16C112.90 4.40 112.38 4.75 111.94 5.18C111.51 5.61 111.19 6.15 110.95 6.78C110.71 7.39 110.60 8.09 110.60 8.86C110.60 9.63 110.71 10.32 110.95 10.95C111.19 11.58 111.51 12.10 111.93 12.54C112.35 12.99 112.87 13.33 113.46 13.57C114.04 13.80 114.69 13.93 115.40 13.93C115.82 13.93 116.20 13.90 116.55 13.86C116.90 13.80 117.22 13.73 117.53 13.65C117.84 13.55 118.12 13.44 118.38 13.30C118.65 13.16 118.90 13.01 119.15 12.84L119.15 9.32ZM143.65 9.91C143.51 9.65 143.32 9.39 143.08 9.21C142.84 9.03 142.59 8.88 142.30 8.75C142.00 8.62 141.68 8.51 141.37 8.41C141.06 8.32 140.76 8.20 140.46 8.11C140.17 7.99 139.90 7.87 139.66 7.71C139.43 7.56 139.24 7.38 139.10 7.15C138.96 6.93 138.88 6.65 138.88 6.31C138.88 6.06 138.94 5.82 139.03 5.59C139.13 5.35 139.27 5.15 139.45 4.97C139.64 4.79 139.86 4.65 140.14 4.55C140.42 4.45 140.73 4.40 141.09 4.40C141.76 4.40 142.38 4.51 142.94 4.75C142.98 5.54 143.01 5.99 143.01 6.06C143.02 6.29 143.11 6.41 143.30 6.41L143.64 6.41L143.64 4.38C142.76 4.00 141.92 3.81 141.09 3.81C140.63 3.81 140.22 3.88 139.86 4.02C139.50 4.16 139.20 4.34 138.96 4.58C138.73 4.82 138.53 5.08 138.40 5.39C138.28 5.70 138.22 6.02 138.22 6.36C138.22 6.78 138.29 7.14 138.43 7.42C138.57 7.70 138.77 7.92 139.01 8.12C139.24 8.32 139.50 8.46 139.79 8.58C140.08 8.71 140.41 8.82 140.71 8.92C141.02 9.02 141.32 9.11 141.62 9.21C141.92 9.31 142.18 9.45 142.42 9.60C142.66 9.76 142.84 9.94 142.98 10.16C143.12 10.39 143.19 10.68 143.19 11.03C143.19 11.35 143.14 11.66 143.02 11.94C142.91 12.22 142.76 12.46 142.55 12.67C142.34 12.88 142.07 13.05 141.76 13.16C141.46 13.29 141.11 13.33 140.71 13.33C139.93 13.33 139.27 13.20 138.74 12.95C138.73 12.75 138.73 12.54 138.71 12.32C138.70 12.10 138.70 11.91 138.68 11.76C138.67 11.61 138.67 11.52 138.67 11.51C138.66 11.28 138.56 11.17 138.36 11.17L138.03 11.17L138.03 13.02L138.03 13.20L138.03 13.38C138.88 13.75 139.76 13.93 140.69 13.93C141.19 13.93 141.64 13.85 142.03 13.69C142.42 13.54 142.76 13.31 143.02 13.05C143.29 12.78 143.51 12.46 143.65 12.10C143.79 11.73 143.86 11.34 143.86 10.92C143.86 10.51 143.79 10.18 143.65 9.91ZM153.31 3.92L152.12 3.92L152.12 4.19C152.12 4.34 152.22 4.42 152.40 4.44L152.54 4.44C152.61 4.44 152.71 4.45 152.85 4.45C152.99 4.45 153.15 4.47 153.31 4.47L153.31 13.26C153.15 13.26 152.99 13.27 152.85 13.27C152.71 13.27 152.61 13.29 152.54 13.29L152.40 13.29C152.22 13.30 152.14 13.38 152.14 13.54L152.14 13.82L153.31 13.82L159.25 13.82L159.25 13.22L159.25 11.76L158.90 11.76C158.70 11.76 158.62 11.89 158.61 12.11C158.61 12.14 158.59 12.19 158.59 12.29C158.59 12.39 158.59 12.53 158.58 12.74C158.56 12.95 158.55 13.09 158.55 13.22L154.03 13.22L154.03 9.09L157.98 9.09L157.98 8.51L154.03 8.51L154.03 4.51L158.55 4.51C158.58 5.12 158.61 5.50 158.61 5.63C158.62 5.85 158.70 5.96 158.90 5.96L159.25 5.96L159.25 4.51L159.25 3.92ZM177.13 13.22L176.67 13.17L172.89 3.91L172.17 3.91L168.38 13.17L167.93 13.22C167.75 13.23 167.66 13.33 167.66 13.50L167.66 13.82L168.11 13.82L168.41 13.82L168.66 13.82L168.76 13.82L170.07 13.82L170.07 13.50C170.07 13.31 169.96 13.23 169.75 13.22C169.74 13.22 169.71 13.20 169.67 13.20C169.62 13.20 169.57 13.19 169.47 13.19C169.37 13.19 169.25 13.19 169.11 13.17L170.09 10.75L170.16 10.57L174.89 10.57L174.96 10.75L175.94 13.17C175.80 13.19 175.69 13.19 175.59 13.19C175.49 13.19 175.42 13.20 175.38 13.20C175.34 13.20 175.31 13.22 175.29 13.22C175.08 13.23 174.97 13.31 174.97 13.50L174.97 13.82L176.29 13.82L176.39 13.82L176.65 13.82L176.93 13.82L177.39 13.82L177.39 13.50C177.39 13.33 177.31 13.23 177.13 13.22ZM172.33 5.22C172.35 5.14 172.40 5.04 172.42 4.94C172.45 4.84 172.49 4.75 172.52 4.63C172.55 4.75 172.59 4.84 172.62 4.94C172.65 5.04 172.69 5.12 172.72 5.21L174.68 10.04L170.38 10.04ZM197.50 4.44C197.68 4.42 197.78 4.34 197.78 4.19L197.78 3.92L196.60 3.92L196.10 3.92C196.03 3.92 195.99 3.92 195.94 3.93C195.90 3.95 195.87 3.99 195.83 4.05L191.94 10.92C191.90 10.99 191.87 11.06 191.84 11.13C191.81 11.20 191.79 11.28 191.76 11.35C191.70 11.20 191.65 11.06 191.58 10.93L187.57 4.05C187.53 3.99 187.50 3.95 187.46 3.93C187.42 3.92 187.38 3.92 187.31 3.92L186.82 3.92L185.63 3.92L185.63 4.19C185.63 4.34 185.72 4.42 185.91 4.44L186.05 4.44C186.12 4.44 186.21 4.45 186.35 4.45C186.49 4.45 186.65 4.47 186.82 4.47L186.82 13.26C186.65 13.26 186.49 13.27 186.35 13.27C186.21 13.27 186.12 13.29 186.05 13.29L185.91 13.29C185.72 13.30 185.63 13.38 185.63 13.54L185.63 13.82L186.82 13.82L187.43 13.82L188.65 13.82L188.65 13.54C188.65 13.38 188.55 13.30 188.37 13.29L188.23 13.29C188.16 13.29 188.05 13.27 187.91 13.27C187.77 13.27 187.60 13.26 187.43 13.26L187.43 5.38C187.43 5.25 187.43 5.12 187.42 4.98L191.42 11.91C191.49 12.04 191.59 12.10 191.70 12.10L191.81 12.10C191.94 12.10 192.02 12.04 192.09 11.91L195.99 4.98C195.97 5.12 195.97 5.25 195.97 5.38L195.97 13.26C195.80 13.26 195.64 13.27 195.50 13.27C195.36 13.27 195.24 13.29 195.17 13.29L195.03 13.29C194.85 13.30 194.75 13.38 194.75 13.54L194.75 13.82L195.97 13.82L196.60 13.82L197.78 13.82L197.78 13.54C197.78 13.38 197.68 13.30 197.50 13.29L197.37 13.29C197.30 13.29 197.19 13.27 197.05 13.27C196.91 13.27 196.77 13.26 196.60 13.26L196.60 4.47C196.77 4.47 196.91 4.45 197.05 4.45C197.19 4.45 197.30 4.44 197.37 4.44ZM212.49 11.97C212.30 11.97 212.21 12.08 212.20 12.31C212.20 12.32 212.20 12.38 212.18 12.43C212.17 12.49 212.17 12.59 212.16 12.71C212.14 12.84 212.13 13.01 212.11 13.20L208.03 13.20L208.03 4.47C208.19 4.47 208.33 4.45 208.47 4.45C208.61 4.45 208.73 4.44 208.80 4.44L208.92 4.44C209.10 4.42 209.20 4.34 209.20 4.19L209.20 3.92L208.03 3.92L207.31 3.92L206.12 3.92L206.12 4.19C206.12 4.34 206.22 4.42 206.40 4.44L206.54 4.44C206.61 4.44 206.71 4.45 206.85 4.45C206.99 4.45 207.14 4.47 207.31 4.47L207.31 13.26C207.14 13.26 206.99 13.27 206.85 13.27C206.71 13.27 206.61 13.29 206.54 13.29L206.40 13.29C206.22 13.30 206.12 13.38 206.12 13.54L206.12 13.82L207.31 13.82L212.59 13.82L212.72 13.82L212.84 13.82L212.84 13.55L212.84 12.99L212.84 11.97L212.56 11.97ZM222.46 3.92L221.27 3.92L221.27 4.19C221.27 4.34 221.37 4.42 221.55 4.44L221.69 4.44C221.76 4.44 221.86 4.45 222.00 4.45C222.14 4.45 222.29 4.47 222.46 4.47L222.46 13.26C222.29 13.26 222.14 13.27 222.00 13.27C221.86 13.27 221.76 13.29 221.69 13.29L221.55 13.29C221.37 13.30 221.28 13.38 221.28 13.54L221.28 13.82L222.46 13.82L228.40 13.82L228.40 13.22L228.40 11.76L228.05 11.76C227.85 11.76 227.77 11.89 227.75 12.11C227.75 12.14 227.74 12.19 227.74 12.29C227.74 12.39 227.74 12.53 227.72 12.74C227.71 12.95 227.70 13.09 227.70 13.22L223.17 13.22L223.17 9.09L227.12 9.09L227.12 8.51L223.17 8.51L223.17 4.51L227.70 4.51C227.72 5.12 227.75 5.50 227.75 5.63C227.77 5.85 227.85 5.96 228.05 5.96L228.40 5.96L228.40 4.51L228.40 3.92ZM242.70 9.91C242.56 9.65 242.37 9.39 242.13 9.21C241.89 9.03 241.64 8.88 241.35 8.75C241.05 8.62 240.73 8.51 240.42 8.41C240.11 8.32 239.81 8.20 239.51 8.11C239.22 7.99 238.95 7.87 238.71 7.71C238.48 7.56 238.29 7.38 238.15 7.15C238.01 6.93 237.93 6.65 237.93 6.31C237.93 6.06 237.99 5.82 238.08 5.59C238.18 5.35 238.32 5.15 238.50 4.97C238.69 4.79 238.91 4.65 239.19 4.55C239.47 4.45 239.78 4.40 240.14 4.40C240.81 4.40 241.43 4.51 241.99 4.75C242.03 5.54 242.06 5.99 242.06 6.06C242.07 6.29 242.16 6.41 242.35 6.41L242.69 6.41L242.69 4.38C241.81 4.00 240.97 3.81 240.14 3.81C239.68 3.81 239.27 3.88 238.91 4.02C238.55 4.16 238.25 4.34 238.01 4.58C237.78 4.82 237.58 5.08 237.45 5.39C237.33 5.70 237.27 6.02 237.27 6.36C237.27 6.78 237.34 7.14 237.48 7.42C237.62 7.70 237.82 7.92 238.06 8.12C238.29 8.32 238.55 8.46 238.84 8.58C239.13 8.71 239.46 8.82 239.76 8.92C240.07 9.02 240.37 9.11 240.67 9.21C240.97 9.31 241.23 9.45 241.47 9.60C241.71 9.76 241.89 9.94 242.03 10.16C242.17 10.39 242.24 10.68 242.24 11.03C242.24 11.35 242.19 11.66 242.07 11.94C241.96 12.22 241.81 12.46 241.60 12.67C241.39 12.88 241.12 13.05 240.81 13.16C240.51 13.29 240.16 13.33 239.76 13.33C238.98 13.33 238.32 13.20 237.79 12.95C237.78 12.75 237.78 12.54 237.76 12.32C237.75 12.10 237.75 11.91 237.73 11.76C237.72 11.61 237.72 11.52 237.72 11.51C237.71 11.28 237.61 11.17 237.41 11.17L237.08 11.17L237.08 13.02L237.08 13.20L237.08 13.38C237.93 13.75 238.81 13.93 239.74 13.93C240.24 13.93 240.69 13.85 241.08 13.69C241.47 13.54 241.81 13.31 242.07 13.05C242.34 12.78 242.56 12.46 242.70 12.10C242.84 11.73 242.91 11.34 242.91 10.92C242.91 10.51 242.84 10.18 242.70 9.91ZM256.90 9.91C256.76 9.65 256.56 9.39 256.33 9.21C256.09 9.03 255.84 8.88 255.54 8.75C255.25 8.62 254.93 8.51 254.62 8.41C254.31 8.32 254.00 8.20 253.71 8.11C253.41 7.99 253.15 7.87 252.91 7.71C252.67 7.56 252.49 7.38 252.35 7.15C252.21 6.93 252.13 6.65 252.13 6.31C252.13 6.06 252.18 5.82 252.28 5.59C252.38 5.35 252.52 5.15 252.70 4.97C252.88 4.79 253.11 4.65 253.39 4.55C253.67 4.45 253.97 4.40 254.34 4.40C255.01 4.40 255.63 4.51 256.19 4.75C256.23 5.54 256.26 5.99 256.26 6.06C256.27 6.29 256.35 6.41 256.55 6.41L256.89 6.41L256.89 4.38C256.00 4.00 255.16 3.81 254.34 3.81C253.88 3.81 253.47 3.88 253.11 4.02C252.74 4.16 252.45 4.34 252.21 4.58C251.97 4.82 251.78 5.08 251.65 5.39C251.52 5.70 251.47 6.02 251.47 6.36C251.47 6.78 251.54 7.14 251.68 7.42C251.82 7.70 252.01 7.92 252.25 8.12C252.49 8.32 252.74 8.46 253.04 8.58C253.33 8.71 253.65 8.82 253.96 8.92C254.27 9.02 254.56 9.11 254.87 9.21C255.16 9.31 255.43 9.45 255.67 9.60C255.91 9.76 256.09 9.94 256.23 10.16C256.37 10.39 256.44 10.68 256.44 11.03C256.44 11.35 256.38 11.66 256.27 11.94C256.16 12.22 256.00 12.46 255.79 12.67C255.58 12.88 255.32 13.05 255.01 13.16C254.70 13.29 254.35 13.33 253.96 13.33C253.18 13.33 252.52 13.20 251.99 12.95C251.97 12.75 251.97 12.54 251.96 12.32C251.94 12.10 251.94 11.91 251.93 11.76C251.92 11.61 251.92 11.52 251.92 11.51C251.90 11.28 251.80 11.17 251.61 11.17L251.27 11.17L251.27 13.02L251.27 13.20L251.27 13.38C252.13 13.75 253.01 13.93 253.93 13.93C254.44 13.93 254.88 13.85 255.28 13.69C255.67 13.54 256.00 13.31 256.27 13.05C256.54 12.78 256.76 12.46 256.90 12.10C257.04 11.73 257.11 11.34 257.11 10.92C257.11 10.51 257.04 10.18 256.90 9.91ZM289.55 3.92L289.00 3.92L288.96 3.92L287.49 3.92L287.49 4.19C287.49 4.34 287.57 4.42 287.76 4.44L287.88 4.44C287.94 4.44 288.04 4.45 288.18 4.45C288.32 4.45 288.46 4.47 288.62 4.47L286.24 12.24C286.22 12.33 286.19 12.43 286.17 12.54C286.16 12.66 286.13 12.75 286.10 12.87C286.08 12.75 286.06 12.63 286.03 12.53L285.95 12.24L283.15 4.10C283.12 4.05 283.09 3.99 283.05 3.96C283.01 3.93 282.95 3.92 282.88 3.92L282.69 3.92C282.62 3.92 282.56 3.93 282.52 3.98C282.48 4.02 282.44 4.05 282.42 4.10L279.62 12.25C279.59 12.35 279.57 12.43 279.54 12.54C279.51 12.64 279.50 12.75 279.47 12.88C279.45 12.78 279.43 12.67 279.40 12.54C279.38 12.43 279.36 12.33 279.33 12.24L276.95 4.47C277.12 4.47 277.26 4.45 277.38 4.45C277.51 4.45 277.59 4.44 277.65 4.44L277.76 4.44C277.94 4.42 278.04 4.34 278.04 4.19L278.04 3.92L276.57 3.92L275.98 3.92L275.38 3.92L275.38 4.19C275.38 4.34 275.48 4.42 275.66 4.44L275.76 4.44C275.80 4.44 275.84 4.45 275.91 4.45C275.98 4.45 276.07 4.47 276.15 4.47L279.10 13.82L279.73 13.82L282.67 5.22C282.72 5.11 282.74 5.00 282.77 4.87C282.80 5.00 282.83 5.11 282.87 5.22L285.80 13.82L286.44 13.82L289.38 4.47C289.46 4.47 289.53 4.45 289.60 4.45C289.67 4.45 289.73 4.44 289.77 4.44L289.87 4.44C290.05 4.42 290.14 4.34 290.14 4.19L290.14 3.92ZM299.38 3.92L298.19 3.92L298.19 4.19C298.19 4.34 298.28 4.42 298.47 4.44L298.61 4.44C298.68 4.44 298.77 4.45 298.91 4.45C299.05 4.45 299.21 4.47 299.38 4.47L299.38 13.26C299.21 13.26 299.05 13.27 298.91 13.27C298.77 13.27 298.68 13.29 298.61 13.29L298.47 13.29C298.28 13.30 298.20 13.38 298.20 13.54L298.20 13.82L299.38 13.82L305.31 13.82L305.31 13.22L305.31 11.76L304.96 11.76C304.77 11.76 304.68 11.89 304.67 12.11C304.67 12.14 304.65 12.19 304.65 12.29C304.65 12.39 304.65 12.53 304.64 12.74C304.63 12.95 304.61 13.09 304.61 13.22L300.09 13.22L300.09 9.09L304.04 9.09L304.04 8.51L300.09 8.51L300.09 4.51L304.61 4.51C304.64 5.12 304.67 5.50 304.67 5.63C304.68 5.85 304.77 5.96 304.96 5.96L305.31 5.96L305.31 4.51L305.31 3.92ZM321.01 9.52C320.59 9.11 319.98 8.86 319.20 8.75C319.52 8.67 319.80 8.55 320.05 8.40C320.31 8.25 320.53 8.08 320.70 7.87C320.87 7.66 321.01 7.43 321.09 7.20C321.17 6.96 321.23 6.71 321.23 6.44C321.23 6.05 321.15 5.68 321.02 5.38C320.89 5.07 320.68 4.80 320.42 4.58C320.15 4.37 319.82 4.20 319.40 4.09C318.98 3.98 318.49 3.92 317.93 3.92L315.08 3.92L313.89 3.92L313.89 4.19C313.89 4.34 313.99 4.42 314.17 4.44L314.31 4.44C314.38 4.44 314.48 4.45 314.62 4.45C314.76 4.45 314.92 4.47 315.08 4.47L315.08 13.26C314.92 13.26 314.76 13.27 314.62 13.27C314.48 13.27 314.38 13.29 314.31 13.29L314.17 13.29C313.99 13.30 313.91 13.38 313.91 13.54L313.91 13.82L315.08 13.82L318.29 13.82C318.82 13.82 319.28 13.76 319.70 13.64C320.12 13.51 320.47 13.34 320.75 13.10C321.03 12.87 321.26 12.59 321.41 12.25C321.57 11.91 321.64 11.54 321.64 11.12C321.64 10.46 321.43 9.93 321.01 9.52ZM315.80 4.48L317.93 4.48C318.81 4.48 319.47 4.66 319.89 5.00C320.31 5.35 320.52 5.84 320.52 6.51C320.52 6.76 320.47 7.03 320.38 7.27C320.28 7.50 320.12 7.71 319.91 7.91C319.70 8.11 319.44 8.26 319.12 8.37C318.79 8.48 318.40 8.55 317.94 8.55L315.80 8.55ZM320.25 12.68C319.80 13.06 319.14 13.24 318.28 13.24L315.80 13.24L315.80 9.07L318.29 9.07C318.71 9.07 319.07 9.11 319.40 9.21C319.72 9.31 320.00 9.45 320.22 9.62C320.45 9.80 320.61 10.00 320.74 10.25C320.85 10.50 320.92 10.79 320.92 11.10C320.92 11.79 320.70 12.31 320.25 12.68ZM341.39 3.92L340.20 3.92L340.20 4.19C340.20 4.34 340.30 4.42 340.48 4.44L340.62 4.44C340.69 4.44 340.79 4.45 340.93 4.45C341.07 4.45 341.22 4.47 341.39 4.47L341.39 13.26C341.22 13.26 341.07 13.27 340.93 13.27C340.79 13.27 340.69 13.29 340.62 13.29L340.48 13.29C340.30 13.30 340.21 13.38 340.21 13.54L340.21 13.82L341.39 13.82L347.33 13.82L347.33 13.22L347.33 11.76L346.98 11.76C346.78 11.76 346.70 11.89 346.68 12.11C346.68 12.14 346.67 12.19 346.67 12.29C346.67 12.39 346.67 12.53 346.65 12.74C346.64 12.95 346.63 13.09 346.63 13.22L342.10 13.22L342.10 9.09L346.05 9.09L346.05 8.51L342.10 8.51L342.10 4.51L346.63 4.51C346.65 5.12 346.68 5.50 346.68 5.63C346.70 5.85 346.78 5.96 346.98 5.96L347.33 5.96L347.33 4.51L347.33 3.92ZM364.56 13.29L364.48 13.29C364.43 13.29 364.36 13.27 364.29 13.27C364.22 13.27 364.14 13.26 364.04 13.26L360.86 8.69L363.90 4.47C364.01 4.47 364.08 4.45 364.17 4.45C364.25 4.45 364.32 4.44 364.36 4.44L364.46 4.44C364.64 4.42 364.74 4.34 364.74 4.19L364.74 3.92L364.29 3.92L364.03 3.92L363.61 3.92L363.57 3.92L361.97 3.92L361.97 4.19C361.97 4.34 362.07 4.42 362.25 4.44L362.36 4.44C362.42 4.44 362.52 4.45 362.66 4.45C362.80 4.45 362.94 4.47 363.10 4.47L360.49 8.18C360.46 8.22 360.44 8.25 360.43 8.29C360.42 8.32 360.40 8.36 360.39 8.40L357.67 4.47C357.83 4.47 357.95 4.45 358.08 4.45C358.20 4.45 358.29 4.44 358.33 4.44L358.44 4.44C358.62 4.42 358.71 4.34 358.71 4.19L358.71 3.92L357.17 3.92L357.15 3.92L356.65 3.92L356.44 3.92L355.99 3.92L355.99 4.19C355.99 4.34 356.09 4.42 356.27 4.44L356.37 4.44C356.41 4.44 356.48 4.45 356.57 4.45C356.65 4.45 356.73 4.47 356.85 4.47L359.86 8.74L356.68 13.26C356.57 13.26 356.48 13.27 356.40 13.27C356.31 13.27 356.24 13.29 356.20 13.29L356.10 13.29C355.92 13.30 355.82 13.38 355.82 13.54L355.82 13.82L356.29 13.82L356.54 13.82L356.93 13.82L357.01 13.82L358.61 13.82L358.61 13.54C358.61 13.38 358.51 13.30 358.33 13.29L358.20 13.29C358.15 13.29 358.04 13.27 357.91 13.27C357.78 13.27 357.63 13.26 357.46 13.26L357.46 13.26L360.26 9.28C360.30 9.21 360.35 9.16 360.36 9.09L363.22 13.26C363.06 13.26 362.92 13.27 362.80 13.27C362.67 13.27 362.57 13.29 362.53 13.29L362.43 13.29C362.25 13.30 362.15 13.38 362.15 13.54L362.15 13.82L363.66 13.82L363.72 13.82L364.22 13.82L364.43 13.82L364.84 13.82L364.84 13.54C364.84 13.38 364.74 13.30 364.56 13.29ZM379.39 4.68C378.80 4.17 377.92 3.92 376.75 3.92L374.35 3.92L373.16 3.92L373.16 4.19C373.16 4.34 373.25 4.42 373.44 4.44L373.58 4.44C373.65 4.44 373.74 4.45 373.88 4.45C374.02 4.45 374.18 4.47 374.35 4.47L374.35 13.26C374.18 13.26 374.02 13.27 373.88 13.27C373.74 13.27 373.65 13.29 373.58 13.29L373.44 13.29C373.25 13.30 373.16 13.38 373.16 13.54L373.16 13.82L374.35 13.82L375.06 13.82L376.24 13.82L376.24 13.54C376.24 13.38 376.14 13.30 375.96 13.29L375.83 13.29C375.76 13.29 375.65 13.27 375.51 13.27C375.37 13.27 375.23 13.26 375.06 13.26L375.06 9.83L376.75 9.83C377.30 9.83 377.79 9.74 378.22 9.60C378.66 9.45 379.02 9.25 379.33 8.99C379.64 8.72 379.88 8.41 380.03 8.05C380.20 7.69 380.27 7.29 380.27 6.86C380.27 5.92 379.97 5.18 379.39 4.68ZM379.36 7.81C379.23 8.11 379.05 8.36 378.81 8.57C378.57 8.78 378.28 8.95 377.93 9.07C377.58 9.20 377.19 9.25 376.75 9.25L375.06 9.25L375.06 4.48L376.75 4.48C377.68 4.48 378.38 4.69 378.85 5.10C379.32 5.50 379.55 6.09 379.55 6.85C379.55 7.20 379.48 7.52 379.36 7.81ZM389.65 3.92L388.46 3.92L388.46 4.19C388.46 4.34 388.56 4.42 388.74 4.44L388.88 4.44C388.95 4.44 389.05 4.45 389.19 4.45C389.33 4.45 389.48 4.47 389.65 4.47L389.65 13.26C389.48 13.26 389.33 13.27 389.19 13.27C389.05 13.27 388.95 13.29 388.88 13.29L388.74 13.29C388.56 13.30 388.47 13.38 388.47 13.54L388.47 13.82L389.65 13.82L395.58 13.82L395.58 13.22L395.58 11.76L395.23 11.76C395.04 11.76 394.95 11.89 394.94 12.11C394.94 12.14 394.93 12.19 394.93 12.29C394.93 12.39 394.93 12.53 394.91 12.74C394.90 12.95 394.88 13.09 394.88 13.22L390.36 13.22L390.36 9.09L394.31 9.09L394.31 8.51L390.36 8.51L390.36 4.51L394.88 4.51C394.91 5.12 394.94 5.50 394.94 5.63C394.95 5.85 395.04 5.96 395.23 5.96L395.58 5.96L395.58 4.51L395.58 3.92ZM412.16 13.29L412.06 13.29L411.88 13.29C411.80 13.29 411.71 13.27 411.63 13.27L408.66 9.53C408.58 9.42 408.46 9.32 408.35 9.25C408.79 9.21 409.18 9.11 409.53 8.96C409.88 8.81 410.16 8.61 410.41 8.37C410.65 8.13 410.84 7.85 410.97 7.55C411.10 7.24 411.17 6.89 411.17 6.51C411.17 5.66 410.89 5.03 410.33 4.58C409.77 4.14 408.91 3.92 407.76 3.92L405.36 3.92L404.18 3.92L404.18 4.19C404.18 4.34 404.26 4.42 404.45 4.44L404.59 4.44C404.66 4.44 404.75 4.45 404.89 4.45C405.03 4.45 405.19 4.47 405.36 4.47L405.36 13.26C405.19 13.26 405.03 13.27 404.89 13.27C404.75 13.27 404.66 13.29 404.59 13.29L404.45 13.29C404.26 13.30 404.17 13.38 404.17 13.54L404.17 13.82L405.36 13.82L406.07 13.82L407.25 13.82L407.25 13.54C407.25 13.38 407.15 13.30 406.97 13.29L406.83 13.29C406.76 13.29 406.66 13.27 406.52 13.27C406.38 13.27 406.24 13.26 406.07 13.26L406.07 9.34L407.25 9.34C407.44 9.34 407.58 9.35 407.67 9.39C407.75 9.44 407.83 9.52 407.92 9.62L411.10 13.64C411.15 13.71 411.19 13.75 411.25 13.78C411.31 13.80 411.38 13.82 411.45 13.82L411.52 13.82L412.06 13.82L412.43 13.82L412.43 13.54C412.43 13.38 412.34 13.30 412.16 13.29ZM407.67 8.81L406.07 8.81L406.07 4.48L407.76 4.48C408.65 4.48 409.32 4.66 409.78 5.00C410.24 5.33 410.47 5.87 410.47 6.57C410.47 6.92 410.41 7.21 410.28 7.49C410.16 7.77 409.96 7.99 409.72 8.19C409.49 8.39 409.19 8.55 408.84 8.65C408.49 8.75 408.10 8.81 407.67 8.81ZM423.44 4.44C423.63 4.42 423.71 4.34 423.71 4.19L423.71 3.91L422.53 3.91L421.82 3.91L420.63 3.91L420.63 4.19C420.63 4.34 420.73 4.42 420.91 4.44L421.05 4.44C421.12 4.44 421.22 4.45 421.36 4.45C421.50 4.45 421.65 4.47 421.82 4.47L421.82 13.26C421.65 13.26 421.50 13.27 421.36 13.27C421.22 13.27 421.12 13.29 421.05 13.29L420.91 13.29C420.73 13.30 420.63 13.38 420.63 13.54L420.63 13.82L421.82 13.82L422.53 13.82L423.71 13.82L423.71 13.54C423.71 13.38 423.63 13.30 423.44 13.29L423.30 13.29C423.23 13.29 423.14 13.27 423.00 13.27C422.86 13.27 422.70 13.26 422.53 13.26L422.53 4.47C422.70 4.47 422.86 4.45 423.00 4.45C423.14 4.45 423.23 4.44 423.30 4.44ZM433.24 3.92L432.05 3.92L432.05 4.19C432.05 4.34 432.15 4.42 432.33 4.44L432.47 4.44C432.54 4.44 432.64 4.45 432.78 4.45C432.92 4.45 433.08 4.47 433.24 4.47L433.24 13.26C433.08 13.26 432.92 13.27 432.78 13.27C432.64 13.27 432.54 13.29 432.47 13.29L432.33 13.29C432.15 13.30 432.07 13.38 432.07 13.54L432.07 13.82L433.24 13.82L439.18 13.82L439.18 13.22L439.18 11.76L438.83 11.76C438.63 11.76 438.55 11.89 438.54 12.11C438.54 12.14 438.52 12.19 438.52 12.29C438.52 12.39 438.52 12.53 438.51 12.74C438.49 12.95 438.48 13.09 438.48 13.22L433.96 13.22L433.96 9.09L437.91 9.09L437.91 8.51L433.96 8.51L433.96 4.51L438.48 4.51C438.51 5.12 438.54 5.50 438.54 5.63C438.55 5.85 438.63 5.96 438.83 5.96L439.18 5.96L439.18 4.51L439.18 3.92ZM456.60 3.92L455.97 3.92L454.75 3.92L454.75 4.19C454.75 4.34 454.85 4.42 455.03 4.44L455.17 4.44C455.24 4.44 455.35 4.45 455.49 4.45C455.63 4.45 455.80 4.47 455.97 4.47L455.97 12.22C455.97 12.35 455.97 12.49 455.98 12.63L449.57 4.05C449.53 3.99 449.50 3.95 449.46 3.93C449.41 3.92 449.37 3.91 449.30 3.91L448.95 3.91L447.76 3.91L447.76 4.19C447.76 4.34 447.86 4.42 448.04 4.44L448.18 4.44C448.25 4.44 448.35 4.45 448.49 4.45C448.63 4.45 448.78 4.47 448.95 4.47L448.95 13.26C448.78 13.26 448.63 13.27 448.49 13.27C448.35 13.27 448.25 13.29 448.18 13.29L448.04 13.29C447.86 13.30 447.76 13.38 447.76 13.54L447.76 13.82L448.95 13.82L449.57 13.82L450.79 13.82L450.79 13.54C450.79 13.38 450.69 13.30 450.51 13.29L450.37 13.29C450.30 13.29 450.17 13.27 450.03 13.27C449.89 13.27 449.74 13.26 449.57 13.26L449.57 5.49C449.57 5.36 449.57 5.22 449.55 5.08L455.99 13.68C456.06 13.78 456.13 13.82 456.25 13.82L456.60 13.82L456.60 4.47C456.76 4.47 456.90 4.45 457.04 4.45C457.18 4.45 457.30 4.44 457.37 4.44L457.49 4.44C457.67 4.42 457.77 4.34 457.77 4.19L457.77 3.92ZM473.54 12.21C473.51 12.18 473.47 12.15 473.42 12.15C473.40 12.15 473.38 12.15 473.35 12.17C473.34 12.18 473.31 12.21 473.28 12.22C473.09 12.40 472.88 12.56 472.68 12.70C472.49 12.84 472.28 12.94 472.04 13.03C471.80 13.13 471.55 13.20 471.27 13.24C470.99 13.29 470.68 13.31 470.33 13.31C469.77 13.31 469.22 13.22 468.75 13.01C468.26 12.81 467.85 12.52 467.50 12.14C467.15 11.76 466.86 11.28 466.66 10.74C466.47 10.19 466.37 9.56 466.37 8.86C466.37 8.18 466.47 7.56 466.66 7.01C466.87 6.47 467.15 6.01 467.52 5.61C467.88 5.24 468.31 4.94 468.82 4.73C469.32 4.52 469.87 4.42 470.47 4.42C471.37 4.42 472.19 4.56 472.92 4.89C472.96 5.78 473.00 6.30 473.00 6.41C473.02 6.64 473.10 6.75 473.30 6.75L473.63 6.75L473.63 4.51C472.46 4.03 471.39 3.81 470.47 3.81C469.76 3.81 469.11 3.92 468.51 4.17C467.92 4.42 467.39 4.76 466.97 5.21C466.54 5.66 466.21 6.19 465.98 6.80C465.74 7.42 465.63 8.11 465.63 8.86C465.63 9.63 465.75 10.32 465.98 10.95C466.20 11.58 466.52 12.10 466.93 12.54C467.33 12.99 467.82 13.33 468.40 13.57C468.97 13.80 469.59 13.93 470.27 13.93C470.68 13.93 471.06 13.90 471.41 13.83C471.74 13.76 472.07 13.66 472.36 13.54C472.64 13.41 472.91 13.26 473.14 13.09C473.38 12.91 473.61 12.73 473.82 12.50ZM483.01 3.92L481.82 3.92L481.82 4.19C481.82 4.34 481.92 4.42 482.10 4.44L482.24 4.44C482.31 4.44 482.41 4.45 482.55 4.45C482.69 4.45 482.85 4.47 483.01 4.47L483.01 13.26C482.85 13.26 482.69 13.27 482.55 13.27C482.41 13.27 482.31 13.29 482.24 13.29L482.10 13.29C481.92 13.30 481.84 13.38 481.84 13.54L481.84 13.82L483.01 13.82L488.95 13.82L488.95 13.22L488.95 11.76L488.60 11.76C488.40 11.76 488.32 11.89 488.31 12.11C488.31 12.14 488.29 12.19 488.29 12.29C488.29 12.39 488.29 12.53 488.28 12.74C488.26 12.95 488.25 13.09 488.25 13.22L483.73 13.22L483.73 9.09L487.68 9.09L487.68 8.51L483.73 8.51L483.73 4.51L488.25 4.51C488.28 5.12 488.31 5.50 488.31 5.63C488.32 5.85 488.40 5.96 488.60 5.96L488.95 5.96L488.95 4.51L488.95 3.92ZM503.26 9.91C503.12 9.65 502.92 9.39 502.68 9.21C502.45 9.03 502.19 8.88 501.90 8.75C501.61 8.62 501.28 8.51 500.98 8.41C500.67 8.32 500.36 8.20 500.07 8.11C499.77 7.99 499.51 7.87 499.27 7.71C499.03 7.56 498.85 7.38 498.71 7.15C498.57 6.93 498.48 6.65 498.48 6.31C498.48 6.06 498.54 5.82 498.64 5.59C498.74 5.35 498.88 5.15 499.06 4.97C499.24 4.79 499.46 4.65 499.74 4.55C500.02 4.45 500.33 4.40 500.70 4.40C501.37 4.40 501.98 4.51 502.54 4.75C502.59 5.54 502.61 5.99 502.61 6.06C502.63 6.29 502.71 6.41 502.91 6.41L503.24 6.41L503.24 4.38C502.36 4.00 501.52 3.81 500.70 3.81C500.23 3.81 499.83 3.88 499.46 4.02C499.10 4.16 498.81 4.34 498.57 4.58C498.33 4.82 498.13 5.08 498.01 5.39C497.88 5.70 497.83 6.02 497.83 6.36C497.83 6.78 497.90 7.14 498.04 7.42C498.18 7.70 498.37 7.92 498.61 8.12C498.85 8.32 499.10 8.46 499.39 8.58C499.69 8.71 500.01 8.82 500.32 8.92C500.63 9.02 500.92 9.11 501.23 9.21C501.52 9.31 501.79 9.45 502.03 9.60C502.26 9.76 502.45 9.94 502.59 10.16C502.73 10.39 502.80 10.68 502.80 11.03C502.80 11.35 502.74 11.66 502.63 11.94C502.52 12.22 502.36 12.46 502.15 12.67C501.94 12.88 501.68 13.05 501.37 13.16C501.06 13.29 500.71 13.33 500.32 13.33C499.53 13.33 498.88 13.20 498.34 12.95C498.33 12.75 498.33 12.54 498.32 12.32C498.30 12.10 498.30 11.91 498.29 11.76C498.27 11.61 498.27 11.52 498.27 11.51C498.26 11.28 498.16 11.17 497.97 11.17L497.63 11.17L497.63 13.02L497.63 13.20L497.63 13.38C498.48 13.75 499.37 13.93 500.29 13.93C500.79 13.93 501.24 13.85 501.63 13.69C502.03 13.54 502.36 13.31 502.63 13.05C502.89 12.78 503.12 12.46 503.26 12.10C503.40 11.73 503.47 11.34 503.47 10.92C503.47 10.51 503.40 10.18 503.26 9.91Z"></path></g></svg>